<?xml version="1.0" encoding="UTF-8" standalone="no"?>
<!-- Created with Inkscape (http://www.inkscape.org/) -->

<svg
   xmlns:dc="http://purl.org/dc/elements/1.1/"
   xmlns:cc="http://creativecommons.org/ns#"
   xmlns:rdf="http://www.w3.org/1999/02/22-rdf-syntax-ns#"
   xmlns:svg="http://www.w3.org/2000/svg"
   xmlns="http://www.w3.org/2000/svg"
   xmlns:xlink="http://www.w3.org/1999/xlink"
   xmlns:sodipodi="http://sodipodi.sourceforge.net/DTD/sodipodi-0.dtd"
   xmlns:inkscape="http://www.inkscape.org/namespaces/inkscape"
   width="166.42291mm"
   height="62.706249mm"
   viewBox="0 0 166.42291 62.706249"
   version="1.1"
   id="svg8"
   inkscape:version="0.92.4 (5da689c313, 2019-01-14)"
   sodipodi:docname="intro.svg"
   inkscape:export-filename="C:\Users\pharodev\Documents\Pharo\images\chip003-01\pharo-local\iceberg\pavel-krivanek\PharoChipDesigner\levels\intro.png"
   inkscape:export-xdpi="96"
   inkscape:export-ydpi="96">
  <defs
     id="defs2">
    <linearGradient
       spreadMethod="pad"
       gradientTransform="matrix(0,12.7,-12.7,0,640,65)"
       gradientUnits="userSpaceOnUse"
       id="lG_fire"
       y2="0"
       x2="1"
       y1="0"
       x1="0">
      <stop
         offset="0"
         style="stop-color:#f7931e;stop-opacity:1"
         id="stop3677" />
      <stop
         offset="1"
         style="stop-color:#ed1c24;stop-opacity:1"
         id="stop3679" />
    </linearGradient>
    <linearGradient
       spreadMethod="pad"
       gradientTransform="matrix(10.76,-145.87,145.87,10.76,631.57,223.43)"
       gradientUnits="userSpaceOnUse"
       id="lG_column"
       y2="0"
       x2="1"
       y1="0"
       x1="0.4">
      <stop
         offset="0"
         style="stop-color:#2b98d8;stop-opacity:1"
         id="stop4289" />
      <stop
         offset="1"
         style="stop-color:#a10b0b;stop-opacity:1"
         id="stop4291" />
    </linearGradient>
    <linearGradient
       inkscape:collect="always"
       xlink:href="#lG_column"
       id="linearGradient862"
       gradientUnits="userSpaceOnUse"
       gradientTransform="matrix(10.76,-145.87,145.87,10.76,631.57,223.43)"
       x1="0.4"
       y1="0"
       x2="1"
       y2="0"
       spreadMethod="pad" />
    <linearGradient
       inkscape:collect="always"
       xlink:href="#lG_column"
       id="linearGradient864"
       gradientUnits="userSpaceOnUse"
       gradientTransform="matrix(10.76,-145.87,145.87,10.76,631.57,223.43)"
       x1="0.4"
       y1="0"
       x2="1"
       y2="0"
       spreadMethod="pad" />
    <linearGradient
       inkscape:collect="always"
       xlink:href="#lG_column"
       id="linearGradient866"
       gradientUnits="userSpaceOnUse"
       gradientTransform="matrix(10.76,-145.87,145.87,10.76,631.57,223.43)"
       x1="0.4"
       y1="0"
       x2="1"
       y2="0"
       spreadMethod="pad" />
    <linearGradient
       inkscape:collect="always"
       xlink:href="#lG_column"
       id="linearGradient868"
       gradientUnits="userSpaceOnUse"
       gradientTransform="matrix(10.76,-145.87,145.87,10.76,631.57,223.43)"
       x1="0.4"
       y1="0"
       x2="1"
       y2="0"
       spreadMethod="pad" />
  </defs>
  <sodipodi:namedview
     id="base"
     pagecolor="#ffffff"
     bordercolor="#666666"
     borderopacity="1.0"
     inkscape:pageopacity="0.0"
     inkscape:pageshadow="2"
     inkscape:zoom="0.98994949"
     inkscape:cx="364.37531"
     inkscape:cy="23.507296"
     inkscape:document-units="mm"
     inkscape:current-layer="layer1"
     showgrid="false"
     fit-margin-top="0"
     fit-margin-left="0"
     fit-margin-right="0"
     fit-margin-bottom="0"
     inkscape:window-width="1920"
     inkscape:window-height="1017"
     inkscape:window-x="-8"
     inkscape:window-y="-8"
     inkscape:window-maximized="1" />
  <metadata
     id="metadata5">
    <rdf:RDF>
      <cc:Work
         rdf:about="">
        <dc:format>image/svg+xml</dc:format>
        <dc:type
           rdf:resource="http://purl.org/dc/dcmitype/StillImage" />
        <dc:title></dc:title>
      </cc:Work>
    </rdf:RDF>
  </metadata>
  <g
     inkscape:label="Layer 1"
     inkscape:groupmode="layer"
     id="layer1"
     transform="translate(-29.425449,-84.218307)">
    <rect
       style="opacity:1;vector-effect:none;fill:#fff7e2;fill-opacity:1;stroke:none;stroke-width:0.64869606;stroke-linecap:butt;stroke-linejoin:miter;stroke-miterlimit:4;stroke-dasharray:1.29739212, 1.29739212;stroke-dashoffset:0;stroke-opacity:1"
       id="rect860"
       width="166.423"
       height="62.706001"
       x="29.425449"
       y="83.683998" />
    <g
       transform="matrix(0.26458333,0,0,0.26458333,-115.76764,85.374498)"
       id="beacon">
      <path
         style="fill:url(#lG_fire);stroke:none"
         id="fire"
         d="M 628.58,64.64 V 83.86 H 651.3 V 63.72 l -11.16,-2.74 z"
         inkscape:connector-curvature="0" />
      <path
         style="fill:#164c6c;fill-opacity:1;fill-rule:nonzero;stroke:none"
         id="cap"
         d="m 627.39,67.47 c 0.23,-0.63 1.25,-1.52 2.83,-2.36 2.32,-1.24 5.84,-2.38 9.79,-2.43 6.63,-0.1 12.1,2.87 12.7,4.41 h 0.06 v -0.01 c -0.06,-3.58 -5.2,-10.05 -11.7,-10.26 l -3.15,0.11 c -6.05,0.62 -10.64,7.12 -10.59,10.53 v 0.01 z"
         inkscape:connector-curvature="0" />
      <g
         style="fill:url(#linearGradient868);stroke:none"
         id="column">
        <path
           id="top"
           d="m 635.55,75.19 c -6.21,0.44 -11.87,2.99 -11.87,2.99 v 0 5.38 c 0,0 -0.03,1.36 2.63,2.25 v 0 l 0.13,5.46 c -7.22,0.95 -12.04,2.56 -12.01,4.31 v 0 c 0,0.44 2.25,3.62 2.25,3.62 v 0 c 0,0 0.78,0.96 1.72,1.1 v 0 c 0.94,0.14 2.58,0.95 3.64,1.82 v 0 c 1.07,0.87 1.95,2.52 1.97,3.69 v 0 c 0.02,1.16 1.2,2.1 2.62,2.07 v 0 l 3.39,-0.05 c -4.06,2.31 -5.35,4.76 -6.55,6.46 v 0 c -1.24,1.74 -2.28,16.8 -2.28,16.8 v 0 c 0,0 0.57,-1.52 2.88,-5.11 v 0 c 2.31,-3.58 11.46,-8.51 18.35,-12.25 v 0 c 5.78,-3.14 11.02,-6.26 11.02,-6.26 v 0 c 1.34,-0.78 2.55,-1.43 2.55,-2.58 v 0 c 0,-1.4 0.59,-3.08 1.35,-3.73 v 0 c 0.76,-0.67 2.15,-1.33 3.09,-1.5 v 0 c 0.93,-0.16 1.68,-1.15 1.68,-1.15 v 0 c 0,0 2.14,-3.25 2.13,-3.69 v 0 c -0.02,-1.67 -4.44,-3.07 -11.12,-3.83 v 0 l -0.13,-5.41 c 1.94,-0.59 3.09,-1.28 3.07,-2.02 v 0 -5.38 c 0,0 -5.07,-2.81 -11.83,-3.11 v 0 c -2.42,0 -6.33,0 -8.67,0.12"
           inkscape:connector-curvature="0"
           style="fill:url(#linearGradient862)" />
        <path
           id="middle"
           d="m 642.45,128.1 c -15.04,7.24 -22.43,10.89 -23.5,18.67 v 0 c -1.07,7.78 -2.22,15.42 -2.22,15.42 v 0 c 0.93,-5.6 11.84,-12.19 22.76,-17.5 v 0 c 10.92,-5.3 18.74,-8.75 18.23,-14.51 v 0 c -0.45,-5.14 -1.54,-12.22 -1.77,-13.67 v 0 c 0.08,1.08 -0.57,5.38 -13.49,11.6"
           inkscape:connector-curvature="0"
           style="fill:url(#linearGradient864)" />
        <path
           id="bottom"
           d="m 640.26,162.25 c -20.34,9.48 -25.38,12.09 -25.97,17.91 v 0 c -0.51,5.01 -1.68,15.57 -2,18.42 v 0 c 0.39,-1.55 2.49,-5.54 13.28,-11.4 v 0 c 14.1,-7.67 36.69,-14.04 36.14,-22.06 v 0 c -0.54,-8.02 -2.06,-18.59 -2.06,-18.59 v 0 c 0,0 0.94,6.24 -19.4,15.73"
           inkscape:connector-curvature="0"
           style="fill:url(#linearGradient866)" />
      </g>
      <path
         style="opacity:0.7;fill:#ffffff;fill-opacity:1;fill-rule:nonzero;stroke:none"
         id="flare"
         d="m 698.94,17.83 c -78.62,68.64 -72.74,53.81 -18,45.42 -54.74,8.39 -63.63,-4.87 27.19,40.57 -90.82,-45.44 -74.9,-44.42 -48.75,-3.09 -26.15,-41.33 -16.29,-53.88 -30.19,38.41 13.9,-92.29 17.86,-76.83 -12.12,-47.32 29.99,-29.51 44.96,-24.01 -45.85,-16.84 90.82,-7.17 77.34,1.37 41.26,-26.16 36.08,27.52 35.48,43.47 1.84,-48.82 33.63,92.3 21.35,82.11 37.62,31.17 -16.27,50.94 -31.63,55.3 47,-13.34"
         inkscape:connector-curvature="0" />
    </g>
    <flowRoot
       xml:space="preserve"
       id="flowRoot870"
       style="fill:black;fill-opacity:1;stroke:none;font-family:sans-serif;font-style:normal;font-weight:normal;font-size:16px;line-height:1.25;letter-spacing:0px;word-spacing:0px"><flowRegion
         id="flowRegion872"><rect
           id="rect874"
           width="278.80209"
           height="76.771591"
           x="184.85791"
           y="207.70558" /></flowRegion><flowPara
         id="flowPara876"></flowPara></flowRoot>    <flowRoot
       xml:space="preserve"
       id="flowRoot878"
       style="font-style:normal;font-weight:normal;font-size:16px;line-height:1.25;font-family:sans-serif;letter-spacing:0px;word-spacing:0px;fill:#000000;fill-opacity:1;stroke:none"
       transform="matrix(0.26458333,0,0,0.26458333,-7.6704323,34.506174)"><flowRegion
         id="flowRegion880"><rect
           id="rect882"
           width="588.91895"
           height="144.45181"
           x="172.73608"
           y="202.65482" /></flowRegion><flowPara
         id="flowPara884">based on <flowSpan
   style="fill:#800000"
   id="flowSpan886">KOHCTPYKTOP: ENGINEER OF THE PEOPLE</flowSpan> by <flowSpan
   style="fill:#800000"
   id="flowSpan888">ZACHTRONICS</flowSpan></flowPara></flowRoot>  </g>
</svg>
