<?xml version="1.0" encoding="UTF-8" standalone="no"?>
<!-- Created with Inkscape (http://www.inkscape.org/) -->

<svg
   xmlns:dc="http://purl.org/dc/elements/1.1/"
   xmlns:cc="http://creativecommons.org/ns#"
   xmlns:rdf="http://www.w3.org/1999/02/22-rdf-syntax-ns#"
   xmlns:svg="http://www.w3.org/2000/svg"
   xmlns="http://www.w3.org/2000/svg"
   xmlns:sodipodi="http://sodipodi.sourceforge.net/DTD/sodipodi-0.dtd"
   xmlns:inkscape="http://www.inkscape.org/namespaces/inkscape"
   width="166.42291mm"
   height="62.706249mm"
   viewBox="0 0 166.42291 62.706249"
   version="1.1"
   id="svg8"
   inkscape:version="0.92.4 (5da689c313, 2019-01-14)"
   sodipodi:docname="playground.svg"
   inkscape:export-filename="C:\Users\pharodev\Documents\Pharo\images\chip005-01\pharo-local\iceberg\pavel-krivanek\PharoChipDesigner\levels\playground.png"
   inkscape:export-xdpi="96"
   inkscape:export-ydpi="96">
  <defs
     id="defs2">
    <linearGradient
       spreadMethod="pad"
       gradientTransform="matrix(0,12.7,-12.7,0,640,65)"
       gradientUnits="userSpaceOnUse"
       id="lG_fire"
       y2="0"
       x2="1"
       y1="0"
       x1="0">
      <stop
         offset="0"
         style="stop-color:#f7931e;stop-opacity:1"
         id="stop3677" />
      <stop
         offset="1"
         style="stop-color:#ed1c24;stop-opacity:1"
         id="stop3679" />
    </linearGradient>
    <linearGradient
       spreadMethod="pad"
       gradientTransform="matrix(10.76,-145.87,145.87,10.76,631.57,223.43)"
       gradientUnits="userSpaceOnUse"
       id="lG_column"
       y2="0"
       x2="1"
       y1="0"
       x1="0.4">
      <stop
         offset="0"
         style="stop-color:#2b98d8;stop-opacity:1"
         id="stop4289" />
      <stop
         offset="1"
         style="stop-color:#a10b0b;stop-opacity:1"
         id="stop4291" />
    </linearGradient>
  </defs>
  <sodipodi:namedview
     id="base"
     pagecolor="#ffffff"
     bordercolor="#666666"
     borderopacity="1.0"
     inkscape:pageopacity="0.0"
     inkscape:pageshadow="2"
     inkscape:zoom="1.4"
     inkscape:cx="394.36421"
     inkscape:cy="37.287773"
     inkscape:document-units="mm"
     inkscape:current-layer="layer1"
     showgrid="false"
     fit-margin-top="0"
     fit-margin-left="0"
     fit-margin-right="0"
     fit-margin-bottom="0"
     inkscape:window-width="1920"
     inkscape:window-height="1017"
     inkscape:window-x="-8"
     inkscape:window-y="-8"
     inkscape:window-maximized="1" />
  <metadata
     id="metadata5">
    <rdf:RDF>
      <cc:Work
         rdf:about="">
        <dc:format>image/svg+xml</dc:format>
        <dc:type
           rdf:resource="http://purl.org/dc/dcmitype/StillImage" />
        <dc:title></dc:title>
      </cc:Work>
    </rdf:RDF>
  </metadata>
  <g
     inkscape:label="Layer 1"
     inkscape:groupmode="layer"
     id="layer1"
     transform="translate(-29.425449,-84.218307)">
    <rect
       style="opacity:1;vector-effect:none;fill:#fff7e2;fill-opacity:1;stroke:none;stroke-width:0.64869606;stroke-linecap:butt;stroke-linejoin:miter;stroke-miterlimit:4;stroke-dasharray:1.29739212, 1.29739212;stroke-dashoffset:0;stroke-opacity:1"
       id="rect860"
       width="166.423"
       height="62.706001"
       x="29.425449"
       y="84.21843" />
    <flowRoot
       xml:space="preserve"
       id="flowRoot870"
       style="fill:black;fill-opacity:1;stroke:none;font-family:sans-serif;font-style:normal;font-weight:normal;font-size:16px;line-height:1.25;letter-spacing:0px;word-spacing:0px"><flowRegion
         id="flowRegion872"><rect
           id="rect874"
           width="278.80209"
           height="76.771591"
           x="184.85791"
           y="207.70558" /></flowRegion><flowPara
         id="flowPara876" /></flowRoot>    <flowRoot
       xml:space="preserve"
       id="flowRoot878"
       style="font-style:normal;font-weight:normal;font-size:16px;line-height:1.25;font-family:sans-serif;letter-spacing:0px;word-spacing:0px;fill:#000000;fill-opacity:1;stroke:none"
       transform="matrix(0.44025018,0,0,0.44025018,44.900792,18.408351)"><flowRegion
         id="flowRegion880"><rect
           id="rect882"
           width="588.91895"
           height="144.45181"
           x="172.73608"
           y="202.65482" /></flowRegion><flowPara
         id="flowPara884"><flowSpan
           style="fill:#800000"
           id="flowSpan888">playground</flowSpan></flowPara></flowRoot>    <g
       id="g5816"
       transform="matrix(0.00455375,0,0,-0.00455375,49.151356,138.3362)"
       style="fill:#000000;stroke:none">
      <path
         id="path5770"
         d="m 9045,10069 c -33,-5 -150,-27 -260,-49 -249,-49 -415,-80 -1175,-220 -333,-61 -810,-149 -1060,-195 -895,-164 -3465,-657 -3470,-665 -3,-4 -30,-13 -60,-18 -126,-24 -170,-67 -170,-165 0,-57 46,-137 94,-162 20,-11 36,-24 36,-30 0,-6 -15,-35 -34,-65 -19,-30 -47,-74 -61,-98 -15,-23 -29,-61 -33,-85 -4,-32 -98,-197 -410,-717 -521,-870 -648,-1076 -670,-1084 -107,-39 -154,-108 -131,-190 10,-37 9,-40 -157,-319 C 1391,5852 1113,5392 865,4985 203,3900 9,3573 4,3537 c -7,-45 26,-93 79,-117 53,-25 118,-26 145,-2 23,20 144,219 822,1347 578,962 851,1405 866,1405 6,0 44,-23 85,-52 41,-28 126,-87 189,-131 63,-43 125,-88 137,-100 33,-30 29,-72 -18,-179 -22,-51 -71,-176 -109,-278 -37,-102 -140,-374 -228,-605 -148,-388 -265,-691 -649,-1685 -80,-206 -201,-523 -270,-705 -68,-181 -147,-383 -174,-447 -64,-153 -70,-188 -36,-222 18,-18 37,-26 60,-26 33,0 35,3 75,89 23,49 67,153 98,232 30,79 88,224 126,322 l 71,179 166,-166 165,-165 -94,-218 c -51,-120 -115,-285 -142,-367 -45,-136 -77,-211 -110,-258 -20,-28 4,-63 54,-81 l 44,-14 39,35 c 42,39 32,14 440,1047 998,2527 1187,2996 1201,2991 18,-7 265,-184 482,-345 151,-112 190,-146 200,-174 8,-22 25,-41 48,-53 l 36,-19 -6,-455 C 3782,3288 3768,992 3774,545 l 6,-480 28,-23 c 62,-51 173,-53 222,-3 l 27,27 7,1494 c 9,2205 18,3250 27,3250 23,0 39,35 39,86 0,47 -3,56 -21,63 l -22,7 2,565 c 1,310 6,607 11,659 13,133 13,1240 0,1240 -6,0 -10,44 -10,111 0,104 2,113 25,141 31,37 30,26 30,300 0,125 4,229 8,230 5,2 15,-14 22,-35 7,-22 22,-49 33,-60 18,-20 36,-95 45,-187 1,-17 9,-26 25,-28 19,-3 22,-9 22,-49 0,-43 -1,-45 -25,-39 l -25,6 v -81 c 0,-70 3,-83 21,-97 22,-19 40,-102 21,-102 -6,0 -14,5 -17,10 -3,6 -12,10 -19,10 -9,0 -12,-20 -11,-73 1,-76 7,-97 29,-97 15,0 30,-69 20,-93 -3,-9 -14,-12 -30,-9 -24,4 -24,4 -24,-76 0,-70 3,-81 18,-87 23,-7 42,-46 42,-85 0,-26 -4,-30 -29,-30 -28,0 -28,-1 -34,-72 -4,-40 -9,-96 -13,-125 -5,-37 -2,-60 9,-82 9,-18 11,-31 5,-31 -6,0 -7,-7 -4,-16 5,-13 0,-15 -32,-9 -58,10 -66,-6 -41,-89 20,-65 20,-81 4,-133 -6,-17 -1,-25 24,-37 18,-10 31,-24 31,-36 0,-10 11,-31 24,-47 l 24,-27 -20,-27 c -11,-15 -23,-49 -26,-75 -3,-30 -14,-60 -28,-77 -22,-27 -44,-84 -44,-118 0,-9 14,-41 30,-72 17,-31 30,-67 30,-79 1,-15 12,-30 33,-43 22,-14 33,-29 35,-50 3,-24 1,-28 -9,-17 -25,23 -29,12 -29,-78 0,-86 1,-91 24,-99 16,-7 25,-20 29,-46 8,-50 1,-62 -31,-57 l -27,4 3,-78 c 3,-68 7,-80 28,-96 20,-16 24,-29 24,-69 0,-48 -1,-49 -25,-43 -25,6 -25,6 -25,-61 0,-59 3,-71 25,-91 20,-18 25,-33 25,-72 0,-48 0,-49 -30,-44 l -30,4 v -71 c 0,-63 2,-72 23,-82 31,-17 37,-28 37,-77 0,-43 0,-44 -30,-37 l -30,7 v -70 c 0,-65 2,-73 30,-100 23,-24 30,-39 30,-71 0,-37 -2,-40 -27,-38 -28,2 -28,1 -31,-61 -3,-59 -1,-65 28,-92 23,-21 30,-37 30,-64 0,-37 -8,-44 -27,-25 -22,22 -33,-3 -33,-75 0,-68 2,-74 25,-84 22,-10 25,-18 25,-63 0,-50 -1,-51 -18,-36 -35,32 -42,21 -42,-68 0,-65 3,-85 13,-85 27,0 47,-36 47,-82 0,-42 -2,-46 -32,-54 -26,-8 -32,-15 -33,-39 -3,-71 -6,-86 -25,-105 -11,-11 -31,-20 -44,-20 -19,0 -27,-8 -36,-35 -15,-44 -5,-64 69,-135 32,-30 71,-71 87,-90 16,-19 37,-41 46,-48 13,-10 105,13 539,133 734,203 654,177 653,211 0,18 8,35 20,46 21,16 21,16 -5,11 -15,-3 -30,1 -37,10 -10,12 -8,16 13,21 29,7 32,18 9,37 -13,11 -17,10 -25,-4 -12,-20 -42,-22 -57,-4 -10,12 -52,198 -52,230 0,8 9,17 20,20 18,5 20,14 20,80 0,67 -2,76 -20,82 -26,8 -26,46 -1,134 22,77 32,160 20,162 -5,1 -15,2 -21,3 -7,0 -14,18 -16,39 -3,33 -1,37 21,37 29,0 37,20 37,101 0,49 -3,57 -23,66 -20,9 -24,19 -24,52 0,32 4,41 17,41 24,0 30,20 30,105 0,72 -13,103 -31,74 -6,-9 -9,4 -9,38 0,46 2,52 23,55 21,3 22,8 25,96 3,90 0,98 -30,93 -3,0 -10,13 -13,31 -6,25 -3,34 19,52 22,18 26,30 30,94 4,70 3,74 -20,82 -20,8 -24,16 -24,50 0,37 2,41 23,38 21,-3 22,1 25,74 3,69 1,78 -18,88 -27,14 -26,59 2,95 20,26 25,68 19,169 -1,7 -10,16 -21,19 -16,4 -20,14 -20,46 0,35 4,43 25,51 22,9 25,15 25,63 v 54 l 39,12 c 93,28 160,176 119,266 -8,19 -8,34 0,62 16,51 -2,71 -49,54 -17,-6 -35,-11 -39,-11 -4,0 -6,38 -4,84 1,60 7,91 20,111 17,26 50,107 61,151 2,12 0,25 -6,28 -7,5 -12,-3 -13,-21 -1,-15 -4,-1 -7,32 -6,64 -11,68 -68,50 -17,-6 -23,-3 -23,8 0,9 10,18 23,20 l 22,4 -22,8 c -21,7 -22,13 -22,101 1,80 3,93 15,83 11,-9 14,-8 14,4 0,8 -6,20 -14,26 -8,7 -17,30 -21,52 -6,36 -25,65 -25,38 0,-8 -4,-8 -15,1 -24,20 -19,58 8,62 35,5 46,65 20,117 -16,32 -17,41 -7,41 8,0 14,5 14,11 0,6 -9,9 -19,6 -21,-5 -31,10 -31,47 0,15 9,25 30,33 l 31,12 -2,90 c -2,66 -6,91 -15,91 -7,0 -16,-5 -20,-12 -9,-15 -22,16 -23,55 -1,22 3,27 22,27 34,0 47,19 47,71 0,67 -10,109 -27,109 -9,0 -11,-5 -7,-12 5,-9 2,-8 -10,1 -12,10 -16,26 -14,55 3,36 6,41 25,38 25,-3 31,11 34,85 3,46 0,55 -24,73 -35,28 -36,74 -1,125 22,32 25,45 19,82 -5,36 -3,43 10,43 12,0 15,-6 10,-21 -5,-15 -4,-19 4,-15 6,4 11,15 11,25 0,14 26,23 153,49 83,17 238,49 342,70 105,22 211,42 236,46 46,7 46,6 52,-24 4,-18 24,-47 49,-70 41,-38 42,-40 21,-46 -21,-6 -23,-12 -23,-77 0,-49 5,-76 15,-87 9,-10 19,-34 22,-54 5,-32 3,-36 -16,-36 -20,0 -21,-5 -21,-79 0,-70 2,-79 20,-84 16,-4 20,-14 20,-52 0,-38 -4,-48 -20,-52 -18,-5 -20,-14 -20,-80 0,-60 4,-79 21,-103 18,-23 20,-36 15,-73 -5,-34 -11,-44 -24,-43 -27,2 -26,-53 3,-148 29,-92 29,-111 -1,-111 -17,0 -19,-8 -19,-75 -1,-61 3,-77 17,-88 23,-17 26,-92 3,-92 -12,0 -15,-15 -15,-71 0,-49 4,-75 15,-85 9,-10 15,-34 15,-65 0,-42 -3,-49 -20,-49 -18,0 -20,-7 -20,-73 0,-61 3,-77 20,-92 14,-13 20,-31 20,-64 0,-38 -4,-48 -22,-56 -20,-9 -23,-18 -26,-83 -3,-67 -1,-74 18,-79 39,-10 39,-83 0,-83 -17,0 -20,-7 -21,-52 -2,-73 2,-111 10,-126 4,-8 4,-34 1,-59 -6,-37 -4,-49 11,-64 28,-28 82,-24 236,20 118,33 653,168 736,186 43,9 67,57 67,134 0,54 -5,71 -26,103 -30,43 -27,78 8,93 21,9 23,17 26,94 2,70 0,83 -12,78 -34,-13 -36,76 -2,112 20,22 24,39 28,109 3,45 1,82 -4,82 -4,0 -8,-6 -8,-12 0,-8 -7,-5 -15,6 -25,33 -16,100 11,89 18,-7 21,5 28,105 5,69 3,83 -8,79 -9,-4 -18,4 -24,22 -12,33 -2,54 20,46 12,-5 16,6 22,56 3,34 6,80 6,102 0,34 -2,39 -20,34 -18,-5 -20,0 -20,44 0,45 2,49 24,49 21,0 24,5 30,61 10,102 8,119 -13,119 -21,0 -31,19 -31,61 0,19 5,29 15,29 21,0 32,27 38,103 5,51 3,67 -7,67 -16,0 -37,45 -30,64 3,8 14,16 25,19 16,4 19,14 19,70 0,36 3,73 6,82 5,11 0,18 -15,22 -20,5 -22,11 -19,57 3,45 5,51 24,49 27,-3 34,19 34,110 0,60 -2,67 -20,67 -15,0 -20,7 -20,25 0,15 6,25 15,25 8,0 12,6 9,13 -2,7 9,31 26,52 23,29 30,48 30,81 0,24 1,44 3,44 2,0 73,16 158,36 158,37 542,114 566,114 8,0 13,-11 13,-28 0,-19 11,-39 35,-62 41,-40 46,-70 11,-70 -19,0 -24,-6 -30,-37 -3,-21 -6,-59 -6,-85 0,-40 4,-50 28,-67 23,-16 27,-25 24,-53 -3,-31 -6,-34 -33,-30 l -29,4 v -75 c 0,-69 2,-76 26,-91 21,-15 25,-23 22,-59 -3,-39 -5,-42 -29,-39 -23,2 -27,-2 -33,-35 -3,-21 -6,-57 -6,-81 0,-36 4,-44 25,-52 20,-8 25,-16 25,-45 0,-35 -1,-36 -32,-30 l -33,6 -1,-82 c 0,-73 3,-85 23,-105 16,-17 23,-35 23,-64 0,-39 -2,-41 -27,-38 l -28,3 -3,-86 c -3,-81 -1,-87 21,-101 19,-13 22,-22 19,-57 -4,-38 -6,-41 -33,-41 -26,0 -29,-3 -29,-34 0,-18 -3,-54 -6,-78 -6,-43 -5,-47 22,-59 24,-12 29,-21 32,-58 3,-43 3,-43 -24,-37 -37,10 -44,-5 -44,-90 0,-66 2,-73 25,-88 20,-13 25,-25 25,-57 0,-29 -4,-40 -12,-36 -7,3 -20,8 -29,12 -13,5 -17,-3 -23,-41 -3,-26 -6,-72 -6,-103 0,-54 1,-57 31,-68 23,-9 30,-17 25,-28 -3,-9 -6,-26 -6,-37 0,-15 -5,-19 -20,-15 -28,7 -40,-19 -40,-87 0,-48 3,-58 25,-72 23,-15 26,-23 23,-63 -3,-43 -5,-46 -29,-43 -22,2 -27,-2 -33,-29 -3,-17 -6,-53 -6,-79 0,-40 3,-48 25,-58 23,-10 25,-17 25,-72 0,-46 -3,-60 -14,-60 -8,0 -18,5 -21,10 -3,6 -12,10 -18,10 -9,0 -12,-25 -12,-86 0,-80 2,-88 22,-97 27,-12 32,-23 26,-64 -5,-29 -8,-32 -34,-26 l -29,6 v -91 c 0,-85 1,-91 25,-106 25,-16 32,-47 19,-80 -4,-11 -14,-13 -35,-9 l -29,6 v -76 c 0,-69 2,-76 25,-91 21,-14 25,-24 25,-62 0,-45 0,-46 -29,-39 l -28,6 -7,-82 c -7,-76 -6,-82 14,-96 47,-33 48,-105 1,-101 -26,3 -26,3 -29,-75 -3,-74 -1,-80 23,-99 20,-16 25,-28 23,-52 -3,-27 -7,-31 -35,-34 -33,-3 -33,-4 -33,-55 0,-66 -21,-155 -46,-198 -11,-19 -38,-44 -60,-56 -27,-16 -41,-31 -45,-52 -6,-27 0,-34 100,-113 146,-117 153,-121 182,-108 13,6 238,64 499,128 l 474,117 8,40 c 5,21 14,43 21,48 8,6 3,7 -12,3 -38,-8 -96,43 -110,98 -13,53 -14,156 -2,210 8,31 6,44 -10,70 -25,41 -25,96 0,103 18,5 20,11 38,135 3,26 0,42 -11,53 -35,35 -33,95 4,95 18,0 20,6 20,63 0,34 3,72 6,85 5,18 2,22 -16,22 -20,0 -22,4 -16,32 3,18 16,42 27,54 17,19 20,32 17,83 -2,35 1,63 7,65 6,3 2,11 -8,19 -27,22 -20,81 11,85 20,3 22,9 24,65 3,100 1,118 -17,131 -25,18 -17,80 12,84 27,4 31,28 19,101 -6,38 -5,55 3,60 14,9 5,37 -15,45 -24,9 -17,66 11,92 21,19 25,32 25,76 0,29 3,63 6,76 5,18 2,24 -15,29 -18,5 -22,12 -19,42 2,28 8,37 25,39 19,3 22,11 28,77 6,66 5,76 -15,103 -27,37 -22,73 16,105 15,14 27,37 31,62 3,22 13,45 21,51 13,9 12,13 -8,27 -12,9 -23,26 -24,39 -1,13 -7,22 -14,20 -7,-1 -12,10 -12,28 0,23 5,30 19,30 17,0 20,10 26,73 9,90 5,112 -18,111 -20,-2 -19,6 19,100 13,33 24,64 24,70 0,6 4,17 9,24 6,11 28,2 100,-38 78,-44 91,-55 91,-77 0,-32 38,-96 54,-89 31,13 87,29 90,25 2,-2 54,-137 116,-299 140,-366 853,-2223 876,-2279 15,-38 19,-41 55,-41 41,0 59,18 59,59 0,12 4,21 10,21 18,0 23,50 7,68 -8,9 -26,40 -40,67 -14,28 -28,48 -32,45 -4,-3 -11,5 -16,18 -5,12 -4,22 0,22 5,0 1,28 -10,63 -10,34 -19,65 -19,70 0,10 40,-11 196,-104 l 131,-78 27,-78 c 14,-43 50,-150 80,-238 29,-88 59,-170 66,-182 14,-22 50,-43 75,-43 23,0 55,38 55,65 0,14 5,25 10,25 6,0 10,5 10,10 0,6 -6,10 -13,10 -9,0 -56,120 -132,338 -135,388 -241,670 -261,692 -7,9 -31,65 -53,125 -21,61 -42,119 -46,130 l -8,20 17,-20 c 9,-11 -4,37 -31,115 -25,74 -52,140 -59,145 -16,12 -26,39 -70,181 -18,62 -79,239 -134,394 -55,155 -100,285 -100,290 0,5 55,-18 123,-52 67,-33 147,-71 176,-84 69,-31 120,-69 131,-99 6,-15 4,-39 -6,-70 -23,-78 -2,-111 82,-129 29,-7 40,-25 194,-339 90,-183 436,-879 768,-1547 332,-668 619,-1249 637,-1291 67,-155 109,-200 189,-207 76,-6 106,3 105,31 0,12 3,34 7,49 5,22 -9,58 -72,180 -42,84 -171,344 -284,578 -114,234 -367,749 -562,1145 -195,396 -388,792 -428,880 -41,88 -114,238 -163,334 -49,95 -100,203 -113,239 -12,35 -27,68 -32,71 -5,3 -12,29 -15,56 -4,42 -11,55 -45,85 -45,40 -58,65 -296,564 -92,192 -184,379 -206,417 -40,70 -83,165 -96,209 -4,14 -12,29 -19,35 -7,5 -108,206 -224,445 -183,373 -212,440 -209,472 2,21 0,38 -4,38 -5,0 -8,6 -8,14 0,8 -29,71 -64,140 -84,166 -85,171 -29,185 23,6 43,15 43,20 0,5 11,22 24,38 34,40 78,150 71,174 -4,11 -20,36 -37,55 -22,25 -38,34 -61,34 -17,0 -145,-23 -285,-52 -262,-53 -261,-53 -275,-14 -2,5 -24,6 -50,2 -35,-5 -47,-12 -47,-24 0,-9 -4,-23 -9,-31 -11,-17 -233,-63 -245,-50 -6,6 -4,9 7,9 21,0 22,9 3,24 -9,7 -12,25 -9,54 5,37 8,42 31,42 14,0 45,9 69,21 34,17 52,35 86,92 50,86 57,155 21,204 -19,26 -27,28 -90,29 -38,1 -96,-2 -129,-7 z m -345,-182 c 26,-24 77,-58 113,-75 51,-25 64,-36 63,-54 -1,-14 -10,-24 -28,-30 -35,-12 -135,36 -207,99 -31,27 -59,43 -75,43 -30,0 -33,11 -8,32 46,40 85,36 142,-15 z m 509,-59 c -9,-16 -39,-38 -53,-38 -3,0 -6,7 -6,15 0,10 -8,13 -27,10 -208,-36 -244,-40 -204,-24 15,6 21,15 17,24 -6,18 7,22 157,44 101,16 113,16 118,2 4,-9 2,-24 -2,-33 z m -513,-76 c 36,-18 86,-62 71,-62 -3,0 -32,10 -63,21 -40,15 -53,24 -43,30 12,8 12,11 -1,18 -10,7 -17,6 -22,-2 -5,-8 -16,-4 -35,16 l -28,28 41,-15 c 23,-8 59,-23 80,-34 z m -763,-11 c 50,-76 147,-113 237,-91 41,10 50,16 45,29 -5,15 12,21 129,41 137,23 166,22 166,-4 0,-16 -1,-17 -203,-52 -137,-25 -156,-30 -152,-45 12,-36 -30,-30 -120,16 -48,24 -104,48 -124,51 -20,4 -44,13 -53,22 -12,10 -28,13 -48,9 -16,-4 -30,-3 -30,2 0,12 32,39 60,50 47,19 66,13 93,-28 z m 677,-52 c 0,-5 -7,-9 -15,-9 -8,0 -15,7 -15,15 0,9 6,12 15,9 8,-4 15,-10 15,-15 z m 370,11 c 0,-5 -4,-10 -9,-10 -6,0 -13,5 -16,10 -3,6 1,10 9,10 9,0 16,-4 16,-10 z m -37,-26 c 37,-34 26,-43 -21,-19 -49,26 -49,25 -32,35 21,13 22,13 53,-16 z m -1049,-3 c 3,-5 42,-23 86,-41 44,-18 83,-37 87,-43 11,-18 -79,2 -122,27 -44,26 -85,66 -67,66 6,0 13,-4 16,-9 z m 1491,-1 c 3,-5 2,-10 -4,-10 -5,0 -13,5 -16,10 -3,6 -2,10 4,10 5,0 13,-4 16,-10 z m -653,-37 c 8,-11 14,-37 14,-63 l -1,-44 -119,-24 -118,-23 -22,20 c -33,31 -114,23 -142,-15 -10,-12 -22,-9 -84,24 -40,21 -72,42 -72,48 1,11 22,15 267,59 225,39 257,41 277,18 z m -854,-18 c 12,-12 -36,-4 -54,10 -17,13 -16,14 15,5 18,-5 36,-12 39,-15 z m 1110,-34 c 4,-13 -34,-15 -42,-2 -4,5 0,11 6,14 7,2 -2,11 -19,21 -18,9 -33,19 -33,22 0,10 84,-43 88,-55 z m -1769,-2 c 36,-43 68,-63 117,-73 27,-6 32,-4 30,11 -1,15 24,22 179,50 148,27 182,31 190,20 15,-20 50,-37 77,-37 30,-1 6,-15 -39,-23 -25,-5 -33,-3 -33,8 0,20 8,20 -215,-20 l -194,-36 -74,41 c -45,24 -87,40 -108,40 -79,0 -96,24 -40,55 37,21 71,10 110,-36 z m 739,7 c 26,-13 100,-56 166,-94 94,-56 114,-71 95,-74 -26,-4 -139,51 -179,88 -22,20 -91,55 -155,78 -16,6 -17,9 -5,16 21,14 25,13 78,-14 z m 862,-6 c 11,-11 28,-20 38,-21 14,0 14,-1 -3,-8 -11,-4 -35,-11 -52,-14 -32,-6 -33,-6 -33,28 0,41 19,46 50,15 z m -1660,-51 c 0,-6 -4,-7 -10,-4 -5,3 -10,11 -10,16 0,6 5,7 10,4 6,-3 10,-11 10,-16 z m 1055,-35 c 55,-31 86,-43 102,-39 13,3 23,1 23,-4 0,-5 -12,-11 -27,-14 -21,-4 -53,8 -128,49 -70,37 -93,54 -75,54 14,0 61,-21 105,-46 z m 1650,16 c -3,-5 -12,-10 -18,-10 -7,0 -6,4 3,10 19,12 23,12 15,0 z m -2583,-47 c 9,3 19,-2 22,-10 11,-28 -95,7 -122,40 -7,8 8,4 35,-10 27,-13 56,-22 65,-20 z m 659,36 c 40,-14 167,-101 153,-106 -5,-1 -128,-27 -274,-57 -258,-53 -265,-54 -290,-36 -14,9 -58,34 -99,54 -40,21 -71,40 -68,42 3,3 28,-6 56,-21 35,-17 57,-23 67,-17 14,8 11,13 -15,31 -17,13 -29,26 -26,31 3,4 31,11 62,15 32,3 119,22 193,40 147,37 189,41 241,24 z m -778,-20 c 69,-35 253,-148 266,-163 9,-11 8,-15 -4,-20 -19,-7 -158,62 -150,74 7,12 -35,40 -50,33 -22,-8 -102,33 -120,61 -10,14 -21,23 -26,20 -5,-3 -9,0 -9,5 0,18 48,12 93,-10 z m 1267,6 c -7,-8 -16,-15 -21,-15 -5,0 -9,7 -9,15 0,9 9,15 21,15 18,0 19,-2 9,-15 z m -2014,-23 c 6,-4 18,-21 27,-37 20,-39 48,-64 83,-74 36,-10 81,5 89,29 4,12 20,19 53,24 26,3 109,18 186,32 116,22 140,24 147,13 18,-28 7,-35 -88,-52 -54,-9 -152,-26 -218,-38 -66,-11 -126,-26 -133,-34 -11,-10 -24,-6 -70,22 -32,18 -68,36 -82,39 -14,3 -35,10 -48,15 -13,5 -32,9 -42,9 -25,0 -25,15 0,40 20,20 74,27 96,12 z m 3171,-23 c -21,-16 -34,-19 -64,-13 l -38,8 50,12 c 72,17 81,16 52,-7 z m 100,-101 c 23,-40 47,-90 54,-110 11,-33 18,-38 60,-48 64,-16 72,-28 67,-96 l -5,-56 42,5 c 22,4 50,9 60,12 14,5 11,-2 -12,-24 -32,-30 -99,-55 -131,-49 -13,2 -15,14 -13,60 2,50 0,58 -21,71 -13,8 -40,18 -60,21 -21,4 -38,13 -38,20 0,7 -24,60 -53,118 l -54,106 26,21 c 14,11 29,20 32,20 3,1 24,-32 46,-71 z m -3281,22 c 5,-5 34,-23 64,-39 l 55,-31 h -36 c -38,0 -81,26 -99,61 -11,20 -1,26 16,9 z m 887,-75 c 37,-20 66,-39 64,-41 -2,-2 -134,-30 -295,-63 l -291,-60 -73,41 c -120,68 -145,86 -124,94 23,9 58,-8 116,-57 45,-38 115,-68 128,-54 10,9 -32,39 -117,83 l -73,39 218,42 c 121,23 237,45 259,50 33,7 47,4 80,-14 22,-12 71,-39 108,-60 z m 2287,25 c 0,-10 -43,5 -67,23 -28,21 -11,24 27,6 22,-11 40,-24 40,-29 z m -55,-15 c 105,-66 112,-72 99,-84 -7,-8 -20,-1 -44,24 -21,21 -44,35 -59,35 -37,1 -95,32 -99,53 -6,29 28,20 103,-28 z m -3090,-11 c 44,-26 125,-71 180,-100 118,-65 124,-70 91,-76 -20,-4 -42,7 -97,48 -39,30 -80,54 -92,54 -20,0 -178,87 -201,111 -6,5 -1,9 15,9 13,0 60,-21 104,-46 z m -777,-16 c 26,-28 65,-59 87,-69 22,-10 32,-19 23,-19 -10,0 -18,-4 -18,-9 0,-5 -26,6 -57,25 -31,18 -71,37 -90,40 -18,3 -36,10 -39,15 -3,5 -17,9 -32,9 l -27,1 33,29 c 46,42 66,38 120,-22 z m 577,31 c 4,-11 5,-22 3,-24 -5,-5 -355,-72 -408,-79 -25,-3 -37,-3 -27,0 12,4 16,12 12,24 -5,16 1,20 32,26 21,3 112,21 203,39 91,18 168,33 172,34 4,0 10,-8 13,-20 z m 3113,-11 c 16,-16 15,-28 -3,-28 -8,0 -15,5 -15,11 0,8 -5,8 -15,-1 -12,-10 -15,-10 -15,3 0,13 12,24 31,26 3,1 10,-4 17,-11 z m -128,-26 c 0,-17 15,-45 40,-76 40,-49 57,-92 25,-66 -27,23 -39,-4 -40,-88 0,-72 1,-77 23,-80 16,-3 22,-10 22,-30 0,-52 -10,-69 -35,-65 -25,5 -65,-12 -65,-27 0,-6 7,-10 15,-10 12,0 15,-14 15,-63 0,-58 2,-65 25,-77 20,-11 25,-21 25,-52 0,-35 -2,-38 -29,-38 -28,0 -28,-1 -35,-72 -6,-68 -5,-74 16,-93 19,-17 22,-28 20,-68 -3,-44 -5,-47 -26,-41 -20,5 -24,1 -29,-33 -13,-73 -8,-112 13,-125 17,-11 20,-24 20,-75 0,-61 0,-62 -27,-60 -25,2 -28,-2 -31,-31 l -3,-32 -96,50 c -52,27 -99,50 -104,50 -5,0 -9,-8 -9,-18 0,-20 123,-88 140,-77 17,11 70,-16 70,-35 0,-9 -3,-19 -6,-23 -3,-3 -64,25 -136,61 l -130,67 6,80 c 3,44 19,260 35,480 17,220 33,455 37,522 l 7,122 101,25 c 136,33 146,33 146,-2 z m 319,-86 c 53,-29 104,-56 114,-59 13,-5 17,-18 17,-65 v -58 l 45,-22 c 25,-12 52,-22 61,-22 10,0 83,-137 218,-412 112,-227 310,-628 440,-892 130,-263 236,-480 236,-482 0,-2 -15,-4 -32,-4 l -33,-1 47,-24 c 41,-22 69,-45 54,-45 -20,0 -456,227 -456,238 0,8 16,4 50,-13 70,-35 76,-31 10,8 -31,18 -67,40 -80,50 -14,10 -43,17 -69,17 -36,0 -77,17 -231,96 -165,85 -270,148 -217,130 46,-16 50,-16 25,-1 -16,8 -28,19 -28,24 0,5 -16,16 -35,25 -19,9 -35,21 -35,25 0,9 -112,71 -128,71 -5,0 -12,-7 -16,-15 -4,-11 8,-22 39,-37 25,-12 45,-26 45,-30 0,-11 -100,35 -202,93 l -90,52 7,77 c 6,67 5,79 -10,87 -13,7 -15,21 -13,64 3,47 6,54 25,57 20,3 22,10 25,89 3,82 -5,110 -23,82 -6,-9 -9,7 -9,44 0,56 0,57 25,51 l 25,-6 v 103 c 0,68 -4,99 -10,89 -14,-23 -23,-4 -16,35 4,20 13,35 21,35 16,0 24,37 28,130 2,59 0,65 -17,62 -16,-3 -18,1 -12,28 3,18 6,38 6,45 0,7 8,15 19,18 15,3 20,18 25,78 7,68 6,75 -13,88 -31,20 -27,62 12,109 17,23 38,41 46,41 8,1 58,-23 110,-53 z m -3828,-44 c -16,-5 -63,24 -96,58 -29,31 -27,30 38,-11 38,-24 64,-45 58,-47 z m 735,47 c 41,-22 74,-45 74,-50 0,-5 3,-8 8,-7 12,4 72,-24 72,-33 0,-15 -52,-10 -71,7 -9,8 -25,16 -36,16 -27,3 -113,-41 -113,-57 0,-13 -22,-19 -274,-71 l -128,-26 -42,22 c -80,45 -176,110 -176,120 0,24 42,7 98,-40 63,-53 116,-80 154,-80 h 23 l -25,21 c -14,11 -61,41 -105,67 l -80,47 150,27 c 83,16 197,39 255,52 58,13 113,25 124,25 10,1 52,-17 92,-40 z m 2451,-161 c -4,-112 -18,-336 -31,-498 -14,-162 -41,-484 -60,-715 -20,-231 -40,-484 -45,-563 -4,-79 -12,-147 -17,-152 -5,-5 -31,-12 -58,-16 l -49,-7 6,114 c 4,63 15,213 24,333 l 17,220 44,45 45,46 -7,-70 c -13,-151 -19,-240 -13,-235 11,11 54,500 82,935 8,132 18,269 21,304 4,39 2,61 -4,57 -5,-3 -12,-54 -16,-113 -12,-191 -56,-777 -62,-810 -3,-18 -8,-33 -12,-33 -4,1 -19,18 -33,39 l -27,38 28,334 c 33,393 49,628 54,797 2,68 7,127 12,132 9,9 43,16 83,19 l 24,1 z m -133,157 c -4,-8 -24,-18 -45,-21 -22,-4 -42,-11 -45,-16 -4,-5 -17,-161 -30,-346 -13,-185 -33,-466 -45,-624 l -22,-287 29,-36 c 59,-75 58,-67 16,-113 -22,-23 -44,-42 -50,-42 -7,0 -12,-8 -12,-17 0,-10 -9,-139 -20,-288 -11,-148 -20,-283 -20,-300 0,-27 -6,-33 -69,-62 -84,-40 -103,-41 -131,-6 -26,34 -23,67 8,71 38,6 51,69 36,164 -4,25 -13,40 -26,44 -29,9 -22,70 8,67 20,-2 22,4 28,85 6,80 5,88 -14,104 -27,22 -28,78 0,85 20,5 22,16 34,140 4,45 2,53 -15,58 -15,5 -19,15 -19,47 0,37 2,40 24,36 24,-5 25,-4 28,76 4,102 0,127 -22,133 -26,7 -23,51 4,55 18,3 22,12 28,77 6,56 5,77 -5,83 -6,4 -7,8 -2,8 6,0 2,5 -7,11 -12,6 -18,22 -18,43 0,25 6,35 26,44 24,12 25,15 23,97 -1,64 -5,85 -15,85 -9,0 -14,12 -14,34 0,25 5,35 20,39 17,4 20,14 22,69 2,86 0,97 -17,114 -24,24 -19,81 8,99 32,20 47,57 47,110 0,38 3,45 23,50 193,46 260,54 251,30 z m -3080,-68 c 56,-35 135,-83 176,-107 68,-40 72,-44 52,-53 -28,-13 -47,-3 -132,69 -36,30 -66,50 -68,44 -2,-6 -19,-2 -40,11 -95,56 -152,95 -152,103 0,20 71,-9 164,-67 z m -244,51 c 0,-7 7,-25 14,-40 14,-27 14,-28 -10,-28 -13,0 -24,5 -24,10 0,14 -33,12 -115,-5 -39,-8 -124,-24 -189,-35 -66,-12 -124,-24 -128,-26 -5,-3 -4,-12 3,-20 23,-28 -29,-15 -86,21 -53,34 -147,61 -167,49 -6,-4 -8,2 -6,12 1,11 20,27 42,38 36,18 40,18 72,2 25,-11 36,-24 41,-47 8,-41 37,-51 112,-37 46,9 58,14 50,24 -5,7 -6,15 -2,17 5,3 76,17 159,32 83,14 164,30 180,35 42,12 54,12 54,-2 z m 2974,-54 c 9,-3 16,-14 16,-24 0,-13 -8,-16 -35,-15 -43,3 -52,10 -35,30 13,16 29,19 54,9 z m -1921,-31 c -7,-2 -19,-2 -25,0 -7,3 -2,5 12,5 14,0 19,-2 13,-5 z m -881,-22 c 13,-5 60,-36 106,-69 l 83,-60 -53,-11 c -29,-6 -96,-20 -148,-30 -59,-12 -99,-16 -104,-10 -6,5 0,9 17,9 29,0 38,24 12,34 -20,7 -68,-11 -60,-23 3,-6 -20,-13 -54,-17 -47,-5 -61,-11 -68,-27 -8,-17 -27,-25 -91,-38 l -82,-16 -110,73 c -103,68 -124,93 -66,78 16,-4 27,-1 33,10 8,14 70,29 423,102 66,13 119,12 162,-5 z m -703,-58 c 2,-2 2,-6 -2,-9 -10,-10 -77,17 -77,31 0,7 -3,21 -7,31 -4,12 8,7 38,-16 24,-19 46,-36 48,-37 z m 4819,38 c 3,-8 -1,-12 -9,-9 -7,2 -15,10 -17,17 -3,8 1,12 9,9 7,-2 15,-10 17,-17 z m -5069,-47 c 7,-19 11,-38 8,-40 -2,-3 -21,-8 -41,-11 -30,-5 -36,-3 -36,12 0,10 -5,15 -13,12 -7,-3 -119,-24 -249,-48 l -237,-43 -50,24 c -33,15 -70,24 -106,24 -30,1 -55,4 -55,8 0,4 10,16 22,27 43,41 139,38 146,-4 5,-27 42,-65 62,-65 9,0 21,10 27,23 10,21 29,26 194,56 101,18 211,38 244,46 33,7 62,13 65,14 4,1 12,-15 19,-35 z m 223,-31 c 79,-51 98,-73 65,-73 -13,0 -148,87 -187,120 l -25,22 30,-7 c 17,-4 69,-32 117,-62 z m 2689,44 c -1,-12 -15,-9 -19,4 -3,6 1,10 8,8 6,-3 11,-8 11,-12 z m 2409,-59 c 0,-10 -14,-16 -55,-22 -16,-2 -31,-5 -32,-5 -1,-1 13,-31 31,-68 18,-38 68,-142 111,-233 43,-91 225,-463 406,-827 180,-365 324,-663 320,-663 -34,0 -76,77 -381,694 -180,364 -359,729 -399,813 -39,84 -88,188 -110,232 -21,44 -36,82 -33,85 3,3 19,6 36,6 17,0 42,6 56,14 21,11 27,11 38,-2 6,-9 12,-20 12,-24 z M 4907,8836 c 61,-39 110,-72 109,-73 -1,-2 -135,-30 -297,-63 -162,-33 -302,-63 -311,-66 -12,-3 -18,0 -18,10 0,12 -10,16 -37,16 -21,0 -56,9 -78,19 -55,25 -165,97 -159,104 3,3 22,3 42,0 27,-4 49,-18 78,-49 40,-43 74,-57 74,-31 0,18 -37,50 -85,75 -28,14 -36,22 -25,26 38,15 557,113 575,109 11,-3 70,-37 132,-77 z m 2567,58 c 9,-8 16,-19 16,-24 0,-17 -22,-23 -32,-9 -7,11 -11,11 -15,2 -7,-18 -33,-16 -33,1 0,45 34,61 64,30 z m -4349,-25 c 9,-16 19,-52 22,-80 6,-54 7,-55 43,-34 18,10 62,14 162,15 110,0 136,3 132,13 -4,10 35,21 158,44 l 163,30 13,-36 c 15,-43 0,-68 -23,-37 -14,18 -19,18 -195,-14 -139,-26 -180,-37 -176,-47 5,-11 -19,-13 -127,-12 -107,1 -140,-2 -165,-15 -37,-19 -37,-19 -47,67 -5,44 -14,66 -36,92 l -30,34 23,4 c 55,10 67,7 83,-24 z m 4215,0 c 0,-12 16,-41 35,-65 39,-47 49,-92 16,-75 -10,6 -21,7 -25,4 -3,-3 -6,-41 -6,-84 0,-68 3,-80 20,-89 16,-8 20,-21 20,-56 0,-44 -1,-46 -24,-40 -21,5 -24,2 -30,-32 -12,-75 -7,-112 19,-138 18,-18 25,-36 25,-64 0,-35 -3,-40 -23,-40 -21,0 -24,-7 -33,-66 -9,-63 -9,-67 13,-84 31,-24 34,-100 4,-100 -23,0 -31,-26 -31,-101 0,-43 4,-60 20,-74 33,-30 25,-117 -10,-108 -16,4 -19,-3 -25,-49 -10,-82 -4,-121 23,-133 16,-7 22,-18 22,-43 0,-29 -2,-32 -24,-26 -29,7 -36,-13 -36,-107 0,-61 2,-67 26,-78 24,-10 25,-15 19,-49 -8,-45 -13,-51 -25,-32 -14,23 -31,-35 -32,-108 0,-47 4,-68 17,-82 12,-13 18,-36 18,-62 0,-38 -3,-43 -22,-41 -27,3 -34,-24 -28,-113 4,-61 7,-69 26,-72 14,-2 21,-11 21,-25 0,-42 -12,-67 -31,-67 -21,0 -27,-20 -31,-94 l -3,-49 -235,-58 c -129,-32 -280,-68 -335,-79 -55,-11 -112,-29 -127,-40 -15,-11 -35,-20 -44,-20 -14,0 -16,8 -10,55 6,53 5,55 -23,69 -26,14 -41,34 -41,56 0,4 14,10 30,14 l 31,6 -3,92 c -2,75 -6,93 -18,93 -22,0 -30,15 -30,58 0,30 4,37 20,37 25,0 32,28 28,115 -2,43 -8,70 -15,73 -7,2 -13,-4 -13,-13 0,-9 -4,-13 -10,-10 -5,3 -10,31 -10,61 0,51 1,54 25,54 24,0 25,2 25,65 0,56 -3,67 -26,88 -20,18 -25,32 -22,58 2,28 7,34 25,31 20,-3 22,1 25,84 3,94 -2,115 -25,96 -20,-17 -27,-5 -27,46 0,39 2,44 19,39 23,-6 31,16 31,86 0,38 -5,53 -25,71 -21,20 -25,31 -23,75 2,46 5,51 25,51 30,0 39,38 26,104 -7,31 -7,53 -2,57 14,8 -1,41 -16,35 -16,-6 -25,15 -25,55 0,22 5,29 20,29 14,0 20,9 25,38 3,20 8,49 10,64 4,22 -2,33 -25,50 -25,18 -30,29 -30,65 0,36 3,43 19,43 25,0 31,19 31,101 0,65 -1,70 -20,64 -15,-5 -21,0 -26,19 -4,18 4,42 30,89 23,41 36,77 36,100 0,21 3,37 6,37 7,0 402,81 609,125 196,41 205,42 205,14 z m -3280,-47 c -14,-5 -62,28 -68,46 -2,7 15,0 38,-15 23,-15 36,-29 30,-31 z m 1385,28 c -27,-12 -43,-12 -25,0 8,5 22,9 30,9 10,0 8,-3 -5,-9 z m -1403,-58 c 40,-27 93,-59 118,-72 53,-26 90,-58 90,-77 0,-26 -34,-12 -73,32 -29,32 -48,45 -68,45 -16,0 -65,25 -125,66 -99,65 -99,66 -57,61 29,-4 65,-21 115,-55 z m 1056,28 c 17,-11 32,-24 32,-30 0,-17 -36,-11 -63,10 -14,11 -30,20 -36,20 -6,0 -11,5 -11,10 0,17 43,11 78,-10 z m -2138,-38 c 0,-30 33,-90 54,-98 16,-6 10,-48 -9,-64 -21,-17 -74,15 -91,55 -22,53 -18,111 8,129 27,19 38,12 38,-22 z m 5430,22 c 0,-17 -22,-14 -28,4 -2,7 3,12 12,12 9,0 16,-7 16,-16 z m 912,-60 c -2,-10 -6,-21 -8,-24 -9,-8 -22,23 -17,37 8,20 29,9 25,-13 z m -5347,7 c 3,-6 58,-43 122,-83 103,-64 113,-73 92,-79 -13,-4 -118,-27 -234,-50 -115,-23 -215,-48 -221,-56 -6,-7 -20,-13 -31,-13 -11,0 -42,-7 -70,-15 -66,-20 -103,-61 -103,-116 v -39 l -91,60 c -51,33 -102,63 -114,66 -22,5 -21,9 41,116 35,61 65,112 66,114 5,4 485,98 525,103 6,0 14,-3 18,-8 z m 4772,-93 c -2,-18 -4,-4 -4,32 0,36 2,50 4,33 2,-18 2,-48 0,-65 z m -2600,56 c -3,-3 -12,-4 -19,-1 -8,3 -5,6 6,6 11,1 17,-2 13,-5 z m -50,-10 c -3,-3 -12,-4 -19,-1 -8,3 -5,6 6,6 11,1 17,-2 13,-5 z m 1363,-4 c 0,-5 -12,-10 -27,-10 -22,0 -25,2 -13,10 20,13 40,13 40,0 z m -1407,-7 c -7,-2 -19,-2 -25,0 -7,3 -2,5 12,5 14,0 19,-2 13,-5 z m -50,-10 c -7,-2 -19,-2 -25,0 -7,3 -2,5 12,5 14,0 19,-2 13,-5 z m 455,-5 c 17,-17 15,-28 -7,-28 -11,0 -23,-5 -26,-10 -9,-15 -25,-2 -25,20 0,28 37,39 58,18 z m -501,-4 c -3,-3 -12,-4 -19,-1 -8,3 -5,6 6,6 11,1 17,-2 13,-5 z m -50,-10 c -3,-3 -12,-4 -19,-1 -8,3 -5,6 6,6 11,1 17,-2 13,-5 z m -40,-10 c -3,-3 -12,-4 -19,-1 -8,3 -5,6 6,6 11,1 17,-2 13,-5 z m -60,-10 c -3,-3 -12,-4 -19,-1 -8,3 -5,6 6,6 11,1 17,-2 13,-5 z m -1427,-14 c 0,-5 -9,-10 -20,-10 -11,0 -20,5 -20,10 0,6 9,10 20,10 11,0 20,-4 20,-10 z m 3090,-6 c 0,-17 -22,-14 -28,4 -2,7 3,12 12,12 9,0 16,-7 16,-16 z m 1267,-96 c -2,-18 -4,-4 -4,32 0,36 2,50 4,33 2,-18 2,-48 0,-65 z m -5657,77 c 0,-14 -55,-111 -85,-151 -46,-59 -46,-95 -2,-139 18,-18 52,-38 74,-44 34,-9 40,-15 36,-31 -4,-15 0,-20 13,-20 16,0 17,-2 4,-10 -21,-14 -50,-12 -51,3 0,6 -29,31 -64,54 -63,42 -65,42 -76,21 -9,-16 -13,-18 -20,-7 -17,27 -8,67 25,110 18,24 43,64 56,89 45,90 90,152 90,125 z m 7095,-26 c 9,-17 15,-33 13,-35 -3,-2 -12,12 -21,31 -21,43 -13,47 8,4 z m -1775,-19 c 0,-5 -6,-10 -14,-10 -8,0 -18,5 -21,10 -3,6 3,10 14,10 12,0 21,-4 21,-10 z m 900,-71 c 0,-11 -4,-18 -10,-14 -5,3 -7,12 -3,20 7,21 13,19 13,-6 z m -6065,-33 c -16,-24 -35,-35 -35,-19 0,10 43,54 48,49 2,-2 -4,-16 -13,-30 z m 1822,28 c -3,-3 -12,-4 -19,-1 -8,3 -5,6 6,6 11,1 17,-2 13,-5 z m 433,-41 c 0,-12 -3,-24 -7,-26 -5,-3 -8,12 -8,34 -1,22 2,33 7,26 4,-6 8,-22 8,-34 z m -473,31 c -3,-3 -12,-4 -19,-1 -8,3 -5,6 6,6 11,1 17,-2 13,-5 z m -50,-10 c -3,-3 -12,-4 -19,-1 -8,3 -5,6 6,6 11,1 17,-2 13,-5 z m 487,-10 c 4,-11 1,-14 -12,-12 -9,1 -23,-1 -31,-6 -14,-9 -34,11 -25,26 9,14 62,9 68,-8 z m -525,2 c -7,-7 -310,-68 -315,-64 -2,3 60,19 138,35 137,30 186,38 177,29 z m 391,-21 c 0,-16 16,-42 41,-70 34,-37 38,-45 22,-45 -17,0 -19,-6 -15,-67 3,-44 11,-77 23,-94 30,-42 30,-109 -1,-109 -39,0 -40,-129 0,-162 16,-13 21,-26 18,-55 -3,-33 -6,-38 -25,-35 -22,3 -23,0 -23,-70 1,-60 5,-80 25,-113 31,-50 31,-73 1,-85 -44,-16 -45,-150 -1,-166 9,-4 15,-18 15,-35 0,-25 -3,-29 -22,-24 -22,5 -23,3 -25,-63 -1,-46 -9,-86 -23,-120 -19,-43 -20,-56 -11,-83 6,-18 11,-45 11,-61 0,-16 4,-38 10,-48 7,-13 3,-30 -16,-66 -29,-55 -28,-98 5,-162 15,-30 17,-47 11,-92 -8,-51 -6,-57 16,-75 33,-28 30,-45 -16,-101 -22,-27 -45,-64 -51,-82 -15,-45 -7,-111 20,-162 14,-28 21,-59 21,-99 0,-52 3,-61 25,-75 21,-14 25,-24 25,-62 0,-40 -2,-45 -19,-39 -22,7 -29,-7 -37,-81 -7,-57 11,-104 41,-104 11,0 15,-11 15,-40 0,-37 -2,-40 -24,-34 -27,7 -36,-13 -36,-88 0,-55 7,-78 25,-78 17,0 25,-23 25,-71 0,-37 -2,-39 -25,-33 l -25,6 v -78 c 0,-72 2,-80 26,-99 22,-18 25,-26 19,-53 -7,-32 -18,-41 -30,-22 -15,25 -25,-7 -25,-82 0,-73 2,-83 25,-104 20,-18 25,-33 25,-70 0,-44 -1,-46 -25,-40 l -25,6 v -77 c 0,-67 3,-80 20,-91 15,-9 20,-23 20,-57 0,-40 -2,-45 -22,-42 -22,2 -23,-2 -26,-71 -3,-68 -1,-75 23,-93 19,-16 25,-30 25,-60 0,-34 -3,-38 -22,-36 -22,2 -23,-2 -26,-75 -3,-69 -1,-77 18,-83 17,-5 20,-15 20,-66 0,-57 -1,-59 -23,-53 -23,5 -24,3 -30,-63 -3,-37 -19,-112 -37,-165 -27,-87 -34,-99 -58,-104 -15,-4 -139,-35 -277,-70 -137,-36 -298,-76 -357,-90 -68,-16 -108,-31 -108,-39 0,-18 -44,-24 -64,-10 -9,7 -14,19 -10,29 4,10 0,18 -10,22 -12,4 -16,19 -16,54 0,43 3,49 23,52 21,3 22,8 22,81 0,42 4,77 9,77 5,0 3,7 -4,15 -16,20 -34,19 -26,-1 4,-10 1,-14 -6,-12 -7,3 -14,23 -16,45 -3,34 1,44 23,61 25,20 26,26 23,87 -1,36 0,65 4,65 4,0 5,7 2,15 -7,17 -34,21 -34,5 0,-5 -4,-10 -10,-10 -5,0 -10,18 -10,40 0,38 2,40 30,40 h 30 v 70 c 0,54 -4,72 -15,76 -8,4 -15,10 -15,16 0,5 4,7 9,3 5,-3 12,-1 16,5 3,6 -1,13 -10,17 -10,3 -21,0 -26,-8 -6,-9 -9,4 -9,39 0,51 0,52 30,52 30,0 30,0 30,58 0,36 -6,66 -16,80 -8,12 -10,22 -5,22 21,0 11,18 -14,24 -21,5 -25,12 -25,42 0,33 2,36 24,30 20,-5 24,-1 30,25 9,49 7,82 -8,111 -11,20 -11,28 -3,32 8,3 8,8 -3,15 -10,7 -17,7 -21,-1 -12,-18 -19,8 -15,54 3,35 8,44 25,46 19,3 21,10 21,67 0,58 -3,66 -25,81 -21,14 -25,24 -25,64 0,43 3,48 25,54 42,11 56,72 33,148 -10,34 -15,39 -35,35 -25,-5 -26,-1 -17,55 5,28 12,38 28,40 17,2 22,11 24,50 2,30 -3,59 -14,80 -12,23 -13,33 -5,36 7,2 2,13 -14,27 -32,31 -32,45 1,45 23,0 25,3 19,29 -6,27 -3,31 39,49 51,23 65,41 101,137 28,75 31,163 6,188 -10,9 -10,6 -2,-16 14,-35 14,-107 1,-127 -8,-12 -10,-9 -10,12 0,38 -17,79 -47,110 -17,18 -23,32 -18,46 4,15 0,24 -14,31 -30,16 -71,14 -71,-4 0,-16 -25,-21 -35,-6 -8,14 16,60 35,66 19,6 30,45 30,102 0,20 6,36 14,39 8,3 31,38 52,77 43,84 51,152 19,187 -31,34 -51,24 -21,-11 26,-30 33,-72 17,-97 -5,-9 -10,-1 -15,27 -4,28 -14,46 -35,60 -16,12 -33,21 -38,21 -11,0 -34,60 -27,72 3,5 12,4 20,-3 13,-10 14,-6 10,27 -2,21 -2,56 1,77 5,31 8,35 20,25 17,-13 -30,78 -52,102 -8,9 -15,33 -15,54 0,30 3,36 18,34 15,-3 17,7 20,75 3,72 1,79 -18,84 -17,5 -20,13 -20,60 0,50 2,55 19,50 38,-10 41,65 6,141 -31,67 -33,108 -5,115 18,5 20,14 20,92 0,84 -1,86 -22,83 -21,-3 -23,1 -26,51 -3,47 -1,53 14,47 26,-10 34,11 34,86 v 68 l -35,14 c -44,19 -44,37 -4,101 26,41 30,56 26,92 -2,24 -1,43 4,43 5,0 9,-12 9,-26 0,-14 4,-23 10,-19 6,3 10,16 10,28 0,24 -9,22 625,158 267,57 265,57 265,24 z m 3407,-52 c -2,-16 -4,-3 -4,27 0,30 2,43 4,28 2,-16 2,-40 0,-55 z m -4952,36 c 4,-12 6,-60 4,-107 l -4,-86 55,-13 c 53,-11 56,-11 120,22 56,28 137,55 168,55 6,0 8,-9 5,-19 -4,-15 -28,-25 -111,-46 -59,-14 -129,-38 -157,-52 -49,-24 -51,-24 -83,-7 -23,12 -31,22 -26,33 24,58 22,123 -6,195 -8,23 -8,31 2,38 20,12 26,10 33,-13 z m 2685,-5 c 0,-14 -3,-14 -15,-4 -8,7 -15,14 -15,16 0,2 7,4 15,4 8,0 15,-7 15,-16 z m -3102,-58 c 82,-62 172,-118 172,-106 0,19 18,10 23,-12 4,-12 5,-23 3,-25 -4,-5 -179,112 -224,150 -60,51 -43,46 26,-7 z m 270,14 c 1,-45 12,-72 39,-102 19,-20 24,-33 19,-53 l -7,-25 -54,37 c -53,37 -54,39 -55,86 0,34 5,52 20,67 28,28 37,25 38,-10 z m 965,13 c -7,-2 -19,-2 -25,0 -7,3 -2,5 12,5 14,0 19,-2 13,-5 z m -50,-10 c -7,-2 -19,-2 -25,0 -7,3 -2,5 12,5 14,0 19,-2 13,-5 z m -1221,-34 c 29,-17 116,-77 193,-134 77,-56 173,-123 213,-149 49,-32 72,-53 72,-66 0,-11 -6,-20 -13,-20 -23,0 -222,141 -230,163 -10,28 -78,72 -87,58 -4,-7 -33,7 -76,37 -136,94 -174,126 -161,134 20,13 34,9 89,-23 z m 1175,25 c -3,-3 -12,-4 -19,-1 -8,3 -5,6 6,6 11,1 17,-2 13,-5 z m -44,-11 c -7,-2 -19,-2 -25,0 -7,3 -2,5 12,5 14,0 19,-2 13,-5 z m -56,-9 c -3,-3 -12,-4 -19,-1 -8,3 -5,6 6,6 11,1 17,-2 13,-5 z m -40,-10 c -3,-3 -12,-4 -19,-1 -8,3 -5,6 6,6 11,1 17,-2 13,-5 z m 4353,-191 c -7,-103 -17,-192 -23,-198 -6,-7 -7,-3 -4,10 3,11 11,102 18,203 7,100 14,180 17,178 2,-3 -1,-90 -8,-193 z m -4403,181 c -3,-3 -12,-4 -19,-1 -8,3 -5,6 6,6 11,1 17,-2 13,-5 z m -40,-10 c -3,-3 -12,-4 -19,-1 -8,3 -5,6 6,6 11,1 17,-2 13,-5 z m -60,-10 c -3,-3 -12,-4 -19,-1 -8,3 -5,6 6,6 11,1 17,-2 13,-5 z m 4163,-4 c 12,-8 11,-10 -7,-10 -13,0 -23,5 -23,10 0,13 11,13 30,0 z M 3390,8146 c 69,-47 184,-125 257,-173 l 132,-88 1,-70 c 0,-45 6,-77 15,-89 13,-17 15,-144 15,-921 0,-496 -3,-1091 -7,-1323 -6,-384 -8,-421 -22,-409 -9,8 -39,27 -66,44 -28,17 -96,65 -150,108 -84,65 -403,296 -442,319 -21,12 -15,-22 8,-45 16,-16 23,-18 29,-9 5,9 30,-4 84,-44 42,-31 111,-81 154,-112 91,-67 153,-124 146,-135 -2,-5 9,-15 25,-24 16,-8 33,-20 36,-26 9,-14 -42,14 -75,41 -19,15 -20,19 -6,13 13,-4 17,-3 12,5 -4,7 -12,12 -17,12 -16,0 -230,147 -474,325 -126,93 -311,227 -410,298 -213,153 -203,145 -165,139 16,-2 30,0 30,5 0,16 -148,131 -210,162 -19,10 -17,6 10,-19 l 35,-31 -53,27 c -53,28 -92,65 -92,89 0,11 -135,112 -167,125 -15,6 142,283 298,522 118,182 169,275 169,310 1,15 12,30 33,43 19,12 37,34 43,54 6,19 18,39 27,46 9,7 14,15 11,18 -3,3 75,140 173,304 99,164 208,351 244,415 46,85 70,119 87,123 13,3 37,25 54,50 l 31,44 36,-19 c 20,-10 92,-57 161,-104 z m -1015,-746 -503,-839 40,-33 41,-34 -17,-32 c -10,-19 -21,-32 -25,-30 -11,5 -81,84 -81,93 0,17 1032,1725 1040,1720 5,-3 -218,-383 -495,-845 z m 1975,793 c 0,-12 -4,-25 -10,-28 -6,-4 -10,11 -10,37 0,31 3,39 10,28 5,-8 10,-25 10,-37 z m -87,12 c -3,-8 -9,-15 -14,-15 -10,0 -12,24 -3,33 11,11 24,-3 17,-18 z m 37,15 c 0,-5 -2,-10 -4,-10 -3,0 -8,5 -11,10 -3,6 -1,10 4,10 6,0 11,-4 11,-10 z m 4970,0 c 0,-5 -7,-10 -15,-10 -8,0 -15,5 -15,10 0,6 7,10 15,10 8,0 15,-4 15,-10 z m -5053,-40 c 6,-17 7,-30 2,-30 -8,0 -29,41 -29,56 0,16 18,-1 27,-26 z m 2221,-9 c 3,-8 -1,-12 -9,-9 -7,2 -15,10 -17,17 -3,8 1,12 9,9 7,-2 15,-10 17,-17 z M 2807,7844 c -102,-170 -278,-466 -392,-659 -232,-392 -410,-682 -432,-705 -17,-17 -34,-47 394,670 176,294 385,645 464,779 79,134 144,240 146,234 2,-5 -79,-149 -180,-319 z m 912,251 c 36,-25 58,-45 50,-45 -8,0 -41,21 -73,45 -77,58 -60,58 23,0 z m 56,17 c -3,-3 -11,0 -18,7 -9,10 -8,11 6,5 10,-3 15,-9 12,-12 z m 97,-150 1,-162 33,-30 c 30,-26 88,-50 122,-50 6,0 12,-4 12,-10 0,-14 -25,-12 -67,5 -45,19 -43,20 -43,-15 0,-34 -9,-36 -48,-16 -61,31 -65,44 -69,201 -3,126 -2,145 12,145 17,0 20,31 5,46 -11,11 16,57 32,52 5,-2 9,-71 10,-166 z m 3548,117 c 0,-24 -23,-21 -28,4 -2,10 3,17 12,17 10,0 16,-9 16,-21 z m 928,-38 c 3,-19 0,-22 -13,-17 -9,3 -19,6 -21,6 -2,0 -4,9 -4,21 0,29 34,21 38,-10 z m 781,-158 c 41,-22 66,-41 68,-54 4,-26 -9,-24 -38,7 -34,36 -106,77 -124,70 -9,-3 -45,9 -80,26 -52,26 -65,37 -65,55 0,22 3,21 88,-24 48,-25 116,-61 151,-80 z m -3695,68 c 3,-4 3,-11 0,-14 -8,-8 -34,3 -34,14 0,11 27,12 34,0 z m 1004,-54 c 2,-10 -3,-17 -12,-17 -10,0 -16,9 -16,21 0,24 23,21 28,-4 z m 2614,-80 c 106,-55 116,-63 103,-77 -10,-11 -15,-38 -15,-78 0,-52 3,-62 20,-67 22,-7 23,-12 14,-67 -6,-34 -9,-37 -30,-32 -24,6 -24,6 -24,-81 0,-78 2,-87 20,-92 16,-4 20,-14 20,-45 0,-38 -2,-40 -25,-34 -23,6 -25,3 -31,-43 -7,-56 7,-49 -149,-76 -49,-9 -99,-19 -109,-22 -19,-5 -19,0 -12,158 3,90 15,268 26,394 11,127 20,233 20,237 0,12 45,-8 172,-75 z m -385,1 c -3,-7 -5,-2 -5,12 0,14 2,19 5,13 2,-7 2,-19 0,-25 z m -1257,13 c 0,-12 -28,-22 -34,-12 -3,5 -3,11 1,15 9,9 33,7 33,-3 z m 1894,-66 c -7,-18 -10,-18 -35,-5 -10,6 -19,20 -19,31 0,18 2,19 30,4 19,-10 27,-20 24,-30 z m -980,9 c 18,-7 21,-30 6,-39 -13,-8 -40,13 -40,31 0,15 10,17 34,8 z m -3990,-79 c -4,-8 -12,-15 -20,-15 -8,0 -14,7 -14,15 0,8 9,15 20,15 13,0 18,-5 14,-15 z m 1096,-5 c 0,-11 -4,-20 -9,-20 -13,0 -32,26 -24,33 13,14 33,6 33,-13 z m 4088,-19 c 41,-21 58,-35 58,-49 0,-18 -2,-18 -36,-4 -80,33 -109,52 -104,67 8,21 16,19 82,-14 z m -5633,-15 40,-14 -4,-1279 -4,-1279 31,-23 c 31,-21 32,-25 32,-93 0,-67 -2,-73 -35,-109 l -35,-39 v -348 c 0,-191 -5,-916 -10,-1612 -14,-1909 -14,-2669 0,-2708 7,-18 21,-37 31,-43 13,-7 19,-21 19,-44 0,-33 -2,-35 -35,-35 -50,0 -82,18 -100,56 -14,30 -16,94 -16,502 1,591 20,4012 24,4109 2,70 4,74 44,115 58,61 66,79 49,120 -8,18 -31,49 -50,67 l -36,35 v 710 c 0,562 10,1927 14,1926 1,0 19,-7 41,-14 z m 5335,4 c 0,-5 -7,-10 -15,-10 -8,0 -15,5 -15,10 0,6 7,10 15,10 8,0 15,-4 15,-10 z m -573,-62 c -2,-13 -4,-5 -4,17 -1,22 1,32 4,23 2,-10 2,-28 0,-40 z m -340,-5 c -3,-10 -5,-2 -5,17 0,19 2,27 5,18 2,-10 2,-26 0,-35 z m -1872,17 c -3,-5 -10,-10 -16,-10 -5,0 -9,5 -9,10 0,6 7,10 16,10 8,0 12,-4 9,-10 z m 955,-66 c 0,-22 -2,-25 -15,-14 -8,7 -15,19 -15,26 0,8 7,14 15,14 10,0 15,-10 15,-26 z m 2305,5 c 15,-14 -7,-10 -35,7 l -25,15 25,-7 c 14,-3 29,-10 35,-15 z m -1058,-46 c -3,-10 -5,-2 -5,17 0,19 2,27 5,18 2,-10 2,-26 0,-35 z m -317,-24 c 0,-15 -30,-23 -42,-11 -6,6 -8,18 -4,27 4,13 10,14 26,5 11,-6 20,-15 20,-21 z m 1391,-16 c 22,-13 29,-25 29,-48 0,-52 21,-107 52,-138 43,-43 52,-73 37,-125 -15,-55 -2,-89 38,-94 25,-3 28,-8 40,-63 17,-83 42,-152 103,-283 50,-105 52,-113 36,-130 -9,-10 -16,-25 -16,-32 0,-31 -22,13 -93,190 -75,186 -277,720 -277,733 0,12 21,8 51,-10 z m -4291,-33 c 0,-5 -7,-10 -15,-10 -8,0 -15,5 -15,10 0,6 7,10 15,10 8,0 15,-4 15,-10 z m 3778,-39 c 3,-16 -1,-22 -10,-19 -7,3 -15,15 -16,27 -3,16 1,22 10,19 7,-3 15,-15 16,-27 z m 752,-50 c 77,-39 96,-53 98,-72 6,-54 14,-69 42,-84 42,-22 75,-19 87,8 10,21 11,20 33,-23 23,-45 62,-151 58,-156 -2,-1 -39,20 -83,48 -87,53 -175,101 -175,94 0,-3 60,-41 134,-85 124,-75 145,-94 146,-133 0,-4 -60,28 -132,71 -145,83 -278,168 -278,175 0,3 5,17 10,32 15,37 3,81 -27,107 -14,12 -32,35 -40,50 -14,28 -14,29 9,22 13,-4 66,-28 118,-54 z m -3517,4 c 4,-8 3,-16 -1,-19 -13,-8 -35,11 -28,23 10,15 23,14 29,-4 z m 3788,-66 c 44,-23 78,-44 75,-46 -4,-4 -125,55 -156,76 -34,24 7,8 81,-30 z m -2841,11 c 0,-11 -4,-20 -10,-20 -5,0 -10,9 -10,20 0,11 5,20 10,20 6,0 10,-9 10,-20 z m 2726,-67 c -7,-7 -26,7 -26,19 0,6 6,6 15,-2 9,-7 13,-15 11,-17 z m -1822,11 c 9,-3 16,-15 16,-26 0,-14 -5,-18 -16,-14 -9,3 -18,6 -20,6 -2,0 -4,9 -4,20 0,22 1,23 24,14 z m -2864,-49 c 0,-8 -4,-17 -10,-20 -6,-4 -10,5 -10,20 0,15 4,24 10,20 6,-3 10,-12 10,-20 z m 3750,-15 c 0,-5 -4,-10 -10,-10 -5,0 -10,5 -10,10 0,6 5,10 10,10 6,0 10,-4 10,-10 z m 1106,2 c 5,-4 41,-95 78,-202 179,-514 215,-621 236,-702 15,-57 28,-88 38,-90 9,-2 33,-54 64,-143 26,-77 42,-132 34,-122 -7,9 -16,17 -19,17 -4,0 -4,-8 0,-17 3,-10 3,-16 0,-13 -11,11 -86,206 -116,306 -16,54 -57,165 -90,245 -33,80 -72,188 -86,240 -15,52 -45,134 -67,183 -28,63 -37,91 -28,96 8,5 8,9 -3,13 -12,5 -32,56 -72,185 -5,13 14,16 31,4 z m -4840,-57 c 17,-13 16,-14 -15,-5 -41,11 -51,20 -25,20 11,0 29,-7 40,-15 z m 3774,-10 c 14,-17 16,-16 -70,-34 -60,-12 -187,-31 -374,-55 -72,-9 -123,-21 -130,-29 -14,-18 -208,-61 -235,-52 -12,3 -21,11 -21,17 0,6 3,8 7,5 3,-4 11,1 18,10 9,12 36,18 107,23 52,4 103,13 114,19 16,9 505,106 555,110 9,0 22,-6 29,-14 z m 1436,-20 c 46,-13 115,-67 102,-80 -5,-6 -188,81 -188,90 0,9 35,5 86,-10 z m -638,-14 c 62,-32 267,-161 256,-161 -9,0 -289,163 -303,176 -11,10 13,2 47,-15 z m 838,-108 c 35,-73 61,-112 103,-153 l 56,-55 -8,-47 -9,-47 180,-353 c 99,-194 330,-657 512,-1028 183,-371 476,-965 651,-1319 176,-354 317,-646 315,-648 -27,-27 -92,98 -943,1832 -119,242 -342,689 -495,993 -278,553 -278,553 -270,600 l 7,47 -55,55 c -54,54 -79,93 -125,197 l -24,53 29,-15 c 22,-11 41,-40 76,-112 z m -5456,77 c 11,-7 12,-14 4,-27 -18,-30 -34,-27 -34,6 0,33 6,37 30,21 z m 1980,-15 c 0,-8 -4,-15 -10,-15 -5,0 -10,7 -10,15 0,8 5,15 10,15 6,0 10,-7 10,-15 z m 870,-16 c 0,-5 -4,-9 -10,-9 -5,0 -10,7 -10,16 0,8 5,12 10,9 6,-3 10,-10 10,-16 z m 1894,-68 c 72,-43 147,-86 166,-96 19,-10 36,-19 38,-20 4,-4 142,-389 142,-399 0,-4 -12,-1 -26,9 -14,9 -28,15 -30,12 -2,-2 12,-12 31,-23 35,-18 67,-74 42,-74 -40,2 -389,224 -401,256 -3,8 1,25 9,38 14,21 12,30 -39,138 -45,95 -96,226 -96,246 0,9 36,-10 164,-87 z m -4710,45 c -9,-15 -19,-24 -22,-22 -2,3 3,17 12,32 10,14 20,23 23,21 2,-3 -3,-17 -13,-31 z M 4097,6723 c -1,-54 -3,-10 -3,97 0,107 2,151 3,98 2,-54 2,-142 0,-195 z m 5039,271 c -3,-9 -6,-19 -6,-24 0,-4 -8,-6 -19,-3 -23,6 -31,-20 -31,-105 0,-56 2,-65 21,-69 15,-4 19,-11 15,-27 -3,-11 -6,-33 -6,-48 0,-23 -4,-28 -25,-28 -19,0 -25,-5 -25,-22 0,-13 -3,-53 -6,-90 -7,-64 -6,-68 17,-78 21,-10 24,-17 21,-51 -4,-33 -8,-39 -27,-39 -29,0 -35,-16 -35,-96 0,-53 3,-66 20,-76 15,-10 20,-24 20,-60 0,-44 -2,-48 -24,-48 -20,0 -24,-6 -30,-46 -12,-88 -8,-122 14,-129 18,-6 20,-14 18,-56 -3,-45 -5,-49 -24,-45 -28,7 -34,-8 -34,-94 0,-63 1,-68 20,-63 18,5 20,0 20,-46 0,-54 -1,-56 -29,-41 -16,8 -20,5 -25,-22 -3,-17 -6,-60 -6,-95 0,-55 2,-64 14,-54 17,15 26,-5 26,-59 0,-40 -13,-59 -26,-39 -15,26 -34,-25 -34,-92 0,-56 3,-70 20,-82 17,-12 19,-21 13,-66 -5,-45 -9,-52 -25,-48 -21,6 -32,-11 -42,-65 -4,-21 -14,-45 -23,-54 -11,-11 -16,-30 -14,-53 1,-25 -4,-44 -16,-58 -18,-20 -41,-26 -493,-133 -65,-15 -114,-31 -113,-38 3,-15 -56,-27 -70,-13 -8,8 -7,32 1,87 8,50 9,81 2,94 -7,13 -6,20 3,23 6,3 2,6 -10,6 -20,1 -23,6 -23,41 0,38 2,40 29,40 h 29 l 4,80 c 4,95 2,100 -23,100 -15,0 -19,7 -19,36 0,33 2,36 25,32 14,-3 25,-4 25,-3 0,1 4,26 10,56 13,70 1,145 -23,141 -14,-2 -17,5 -17,37 0,37 11,55 35,56 6,0 14,38 18,85 8,79 7,86 -12,101 -29,24 -28,67 1,71 27,4 35,32 37,125 1,55 -2,63 -25,80 -33,24 -26,63 10,63 21,0 24,5 29,75 7,80 -3,125 -28,125 -13,0 -15,10 -13,47 2,39 7,49 23,52 31,5 35,20 34,103 -1,66 -4,77 -20,81 -15,4 -19,14 -19,46 0,37 2,41 25,41 26,0 30,8 38,87 3,28 0,46 -8,53 -8,6 -12,17 -9,25 3,7 -3,16 -15,20 -31,9 -28,53 3,65 14,5 30,18 36,30 6,11 21,20 33,20 12,0 64,9 116,20 52,11 95,19 97,17 9,-9 -33,-582 -78,-1053 -10,-99 -9,-127 2,-154 24,-57 115,-78 176,-41 31,19 31,20 38,127 29,439 86,1158 93,1164 10,8 244,59 317,69 4,0 5,-6 2,-15 z m -872,-50 c 10,-27 7,-44 -9,-44 -10,0 -15,10 -15,30 0,32 14,40 24,14 z m 77,-47 c -8,-8 -11,-7 -11,4 0,9 3,19 7,23 4,4 9,2 11,-4 3,-7 -1,-17 -7,-23 z m 300,-434 c -17,-241 -36,-498 -42,-571 -11,-139 -8,-155 30,-167 13,-4 16,-13 13,-36 -2,-17 -10,-33 -18,-36 -13,-5 -80,23 -89,37 -4,7 8,200 63,965 17,238 17,239 42,252 14,7 26,8 28,3 2,-5 -10,-206 -27,-447 z m -3177,428 c 3,-5 -12,-11 -34,-13 -38,-3 -48,1 -33,15 10,10 61,8 67,-2 z m -107,-39 c -53,-55 -30,-130 51,-172 34,-17 19,-24 -23,-10 -65,22 -94,104 -60,170 14,28 45,53 54,44 3,-2 -8,-17 -22,-32 z m -987,-35 c 0,-6 -9,-2 -20,8 -11,10 -20,23 -20,28 0,6 9,2 20,-8 11,-10 20,-23 20,-28 z m 1125,13 c -3,-5 -17,-10 -31,-10 -13,0 -24,5 -24,10 0,6 14,10 31,10 17,0 28,-4 24,-10 z m 933,-8 c 2,-7 -3,-12 -12,-12 -9,0 -16,7 -16,16 0,17 22,14 28,-4 z m -2164,-18 c 3,-9 6,-23 6,-31 0,-13 -3,-13 -15,-3 -16,13 -21,50 -6,50 5,0 12,-7 15,-16 z m 1283,-46 c -4,-13 -13,-32 -22,-43 l -17,-20 7,20 c 4,11 9,35 12,53 4,22 9,30 16,23 5,-5 7,-20 4,-33 z m -57,12 c 0,-23 -10,-26 -28,-8 -18,18 -15,28 8,28 13,0 20,-7 20,-20 z m -1151,-76 c 3,-17 0,-16 -23,5 -14,14 -26,29 -26,34 0,17 45,-20 49,-39 z m 3011,31 c 0,-8 -4,-15 -9,-15 -13,0 -22,16 -14,24 11,11 23,6 23,-9 z m 908,-53 c 2,-7 -3,-12 -12,-12 -9,0 -16,7 -16,16 0,17 22,14 28,-4 z m -4064,-47 c -4,-8 -10,-12 -15,-9 -14,8 -10,24 6,24 9,0 12,-6 9,-15 z m 42,-24 c -30,-58 -18,-112 33,-143 30,-19 33,-23 16,-26 -12,-3 -31,8 -52,32 -28,30 -33,43 -33,83 0,34 6,53 22,70 28,30 34,23 14,-16 z m 182,19 c 7,-11 8,-20 4,-20 -5,0 -17,9 -27,20 -14,15 -15,20 -4,20 8,0 20,-9 27,-20 z m -103,-29 c -8,-13 -35,-15 -35,-2 0,5 8,11 18,13 21,5 26,2 17,-11 z m 4825,-2 c 0,-15 -4,-19 -16,-15 -9,3 -18,6 -20,6 -2,0 -4,7 -4,15 0,8 9,15 20,15 14,0 20,-7 20,-21 z m -4742,-38 c 4,-42 -9,-57 -37,-41 -27,14 -17,33 12,25 21,-6 21,-5 -2,13 -26,21 -21,45 7,40 11,-2 18,-15 20,-37 z m 6989,-468 c 493,-1001 877,-1781 925,-1883 28,-58 54,-113 59,-122 6,-10 8,-18 5,-18 -8,0 -60,102 -180,348 -63,131 -264,541 -446,912 -505,1026 -619,1260 -614,1260 3,0 116,-224 251,-497 z m -6941,455 c -3,-13 -6,-30 -6,-37 0,-10 -3,-11 -9,-5 -12,11 -2,64 11,64 6,0 8,-10 4,-22 z m 1982,-6 c 2,-15 -2,-22 -12,-22 -11,0 -16,9 -16,26 0,31 23,28 28,-4 z m 3662,-54 c 22,-3 26,-9 32,-53 3,-27 13,-67 22,-87 21,-49 20,-55 -6,-32 -21,19 -21,19 -14,0 4,-11 14,-42 23,-69 10,-32 20,-46 29,-43 14,6 78,-75 86,-111 3,-12 0,-30 -7,-40 -7,-10 -15,-27 -17,-38 -3,-15 -12,-5 -32,40 -28,60 -176,449 -176,461 0,4 8,0 18,-9 9,-8 28,-17 42,-19 z m 150,-9 c 27,-17 50,-33 50,-35 0,-6 -71,31 -95,50 -34,26 -8,18 45,-15 z m -5910,11 c 0,-5 -4,-10 -9,-10 -6,0 -13,5 -16,10 -3,6 1,10 9,10 9,0 16,-4 16,-10 z m 100,-4 c 0,-3 -4,-8 -10,-11 -5,-3 -10,-1 -10,4 0,6 5,11 10,11 6,0 10,-2 10,-4 z m -2714,-32 c -18,-48 30,-94 100,-94 28,0 46,-8 75,-35 22,-19 48,-35 59,-35 24,0 180,-109 180,-126 0,-21 41,-60 95,-90 l 50,-28 -25,29 -25,29 35,-22 c 53,-31 180,-133 180,-143 0,-5 -11,-9 -24,-9 -23,0 -38,10 -138,86 -134,103 -398,282 -403,273 -11,-17 -25,-9 -22,13 2,21 -4,23 -58,30 -48,5 -62,3 -72,-9 -16,-21 -48,-8 -62,25 -13,31 -2,73 26,104 20,22 37,23 29,2 z m 2651,1 c 9,-25 -4,-29 -17,-6 -7,15 -7,21 0,21 6,0 13,-7 17,-15 z m 5999,-105 c 63,-39 133,-79 154,-90 35,-18 41,-27 68,-107 16,-48 44,-125 61,-170 31,-85 31,-93 -4,-70 -11,8 -51,30 -90,51 -88,47 -56,19 48,-42 50,-29 82,-55 88,-70 5,-14 8,-27 6,-29 -8,-7 -248,133 -323,188 -76,55 -84,70 -59,103 12,16 12,23 0,52 -17,41 -66,107 -73,99 -5,-4 -52,99 -52,113 0,2 7,-1 15,-8 8,-7 15,-10 15,-6 0,4 -7,23 -15,43 -8,19 -15,37 -15,39 0,7 52,-22 176,-96 z m -2116,60 c 0,-10 -26,-20 -34,-13 -14,14 -5,31 14,26 11,-3 20,-9 20,-13 z m -920,-24 c 0,-10 -33,-22 -107,-39 -113,-27 -293,-61 -378,-73 -27,-3 -58,-13 -68,-22 -23,-21 -177,-62 -252,-68 l -60,-5 23,20 c 12,11 48,25 80,31 60,11 615,144 667,159 49,15 95,13 95,-3 z m 3075,-6 c 17,-11 26,-20 20,-20 -5,0 -23,9 -40,20 -16,11 -25,20 -20,20 6,0 24,-9 40,-20 z m -4839,-36 c 11,-42 -13,-102 -49,-124 -65,-40 -92,-20 -66,47 6,15 11,45 11,66 l -1,37 h 49 c 45,0 50,-2 56,-26 z m 3548,-20 c 9,-22 8,-24 -9,-24 -8,0 -15,9 -15,20 0,24 15,27 24,4 z m -7051,-52 c 26,-19 47,-36 47,-39 0,-2 -27,15 -60,38 -33,23 -60,44 -60,46 0,5 15,-4 73,-45 z m -384,-13 c -6,-11 -85,-143 -176,-291 -90,-149 -268,-445 -395,-657 C 981,5089 761,4726 620,4495 479,4264 326,4010 280,3930 234,3850 175,3750 148,3707 83,3602 77,3585 94,3552 c 13,-26 37,-42 79,-56 17,-6 17,-8 -3,-36 -25,-35 -31,-36 -87,-10 -30,13 -44,27 -50,47 -10,39 -8,43 51,141 29,48 90,152 136,232 46,80 163,273 259,430 96,157 339,560 541,895 341,567 603,999 638,1053 18,28 37,29 21,1 z m 119,-81 c -19,-29 -75,-120 -123,-203 -87,-147 -178,-290 -198,-310 -13,-13 -18,-22 130,225 169,281 214,352 220,346 3,-3 -10,-29 -29,-58 z m 565,-121 c 27,-25 25,-24 -18,5 -101,69 -225,159 -225,164 0,7 208,-138 243,-169 z m 1893,136 c -11,-11 -17,4 -9,23 7,18 8,18 11,1 2,-10 1,-21 -2,-24 z m 133,-58 c -19,-17 -66,-27 -74,-16 -3,6 11,13 31,17 19,3 38,14 42,22 4,12 7,13 10,3 2,-7 -2,-19 -9,-26 z m -169,-18 c -31,-52 -35,-115 -11,-162 19,-38 19,-39 1,-17 -39,46 -38,136 1,186 28,36 32,33 9,-7 z m 4009,9 c 9,-11 8,-15 -5,-20 -26,-10 -34,-7 -34,14 0,23 22,27 39,6 z m -3739,-95 c -1,-32 -7,-67 -16,-81 -11,-18 -13,-19 -9,-5 14,43 17,115 6,147 -10,30 -9,31 4,14 9,-12 15,-41 15,-75 z m 910,69 c 0,-13 -7,-20 -20,-20 -13,0 -20,7 -20,20 0,13 7,20 20,20 13,0 20,-7 20,-20 z m -946,-31 c 13,-37 0,-92 -30,-125 -23,-24 -28,-26 -38,-12 -6,9 -20,17 -31,19 -31,6 -32,47 -2,54 19,5 28,17 36,51 10,38 15,45 34,42 13,-2 25,-14 31,-29 z m -198,-44 c 10,-31 9,-35 -7,-35 -15,0 -19,8 -19,35 0,19 3,35 8,35 4,0 12,-16 18,-35 z m 24,4 c 0,-11 -4,-17 -10,-14 -5,3 -10,15 -10,26 0,11 5,17 10,14 6,-3 10,-15 10,-26 z m 4810,1 c 0,-11 -7,-20 -15,-20 -15,0 -21,21 -8,33 12,13 23,7 23,-13 z m 1206,-86 c 17,-4 24,-13 24,-29 0,-13 9,-42 20,-66 25,-57 27,-77 3,-58 -15,13 -16,11 -10,-20 10,-47 61,-159 65,-140 2,9 -3,34 -11,55 -32,88 -31,81 -13,60 8,-10 25,-47 36,-82 12,-35 26,-66 31,-69 5,-4 9,-15 9,-27 0,-11 11,-33 25,-50 19,-22 23,-34 16,-47 -11,-20 -40,-46 -45,-40 -5,6 -106,257 -126,314 -10,28 -32,88 -49,134 -25,66 -28,82 -15,77 9,-3 27,-9 40,-12 z m -5975,-10 c 17,-8 29,-18 26,-20 -3,-3 -22,4 -44,15 -21,11 -32,20 -25,21 7,0 27,-7 43,-16 z m 6312,-110 c 37,-24 67,-46 67,-48 0,-7 -220,121 -250,145 -32,27 95,-41 183,-97 z m -121,17 c 57,-32 134,-77 172,-100 l 70,-40 56,-163 c 32,-90 60,-174 65,-187 7,-22 5,-22 -56,13 -102,59 -221,118 -226,112 -3,-2 10,-12 29,-21 18,-10 84,-47 146,-83 103,-60 142,-91 142,-115 0,-18 -331,174 -372,215 -18,18 -18,21 -4,37 21,23 20,43 -4,74 -11,14 -20,34 -20,45 0,12 -4,23 -9,26 -4,3 -20,39 -36,81 -15,41 -32,78 -38,82 -7,4 -8,0 -2,-13 21,-51 35,-98 32,-107 -2,-8 -31,59 -64,148 -6,18 -5,18 10,6 20,-16 23,-1 7,30 -6,10 -9,19 -6,19 2,0 51,-27 108,-59 z m -6199,42 c -7,-2 -19,-2 -25,0 -7,3 -2,5 12,5 14,0 19,-2 13,-5 z m 3897,-18 c 18,-21 6,-45 -19,-38 -14,3 -21,14 -21,29 0,27 21,32 40,9 z m -5609,-28 c 64,-39 101,-76 92,-90 -12,-20 -143,66 -143,93 0,25 7,25 51,-3 z m 8168,-17 c 0,-10 -3,-8 -9,5 -12,27 -12,43 0,25 5,-8 9,-22 9,-30 z m -5432,-17 c -3,-10 -5,-4 -5,12 0,17 2,24 5,18 2,-7 2,-21 0,-30 z M 2212,5293 C 1825,4282 1538,3544 1519,3514 c -10,-17 -19,-40 -19,-50 0,-11 -32,-102 -71,-204 -359,-934 -520,-1377 -513,-1406 5,-18 0,-32 -17,-50 -27,-29 -36,-30 -44,-5 -8,27 174,518 680,1831 536,1391 652,1695 746,1942 80,209 96,245 108,234 11,-12 -16,-91 -177,-513 z m 3178,517 c 0,-5 -7,-10 -15,-10 -8,0 -15,5 -15,10 0,6 7,10 15,10 8,0 15,-4 15,-10 z m 3680,-61 c 0,-5 -4,-9 -10,-9 -5,0 -10,7 -10,16 0,8 5,12 10,9 6,-3 10,-10 10,-16 z m -6451,-74 c 46,-31 120,-85 166,-120 l 83,-65 -25,-78 c -19,-60 -150,-406 -159,-420 -1,-2 -73,52 -159,120 -86,68 -165,128 -174,133 -16,9 -8,33 77,248 52,130 98,237 102,237 4,0 44,-25 89,-55 z m 213,-30 c 8,3 36,-11 64,-32 43,-33 46,-38 27,-41 -32,-5 -84,23 -124,65 -29,30 -30,33 -8,19 14,-9 33,-14 41,-11 z m 8031,-92 c 79,-203 107,-283 98,-283 -26,0 -55,47 -91,145 -41,113 -47,141 -30,130 13,-8 13,-7 -10,60 -21,62 -22,65 -16,65 2,0 24,-53 49,-117 z m -6538,87 c 3,-5 -3,-10 -14,-10 -12,0 -21,5 -21,10 0,6 6,10 14,10 8,0 18,-4 21,-10 z m -2877,-53 c -33,-53 -42,-45 -10,8 15,25 28,41 30,36 1,-4 -8,-25 -20,-44 z m 3895,18 c -7,-21 -13,-19 -13,6 0,11 4,18 10,14 5,-3 7,-12 3,-20 z m 2841,-11 c 9,-3 16,-15 16,-26 0,-28 -34,-19 -38,10 -4,24 -2,25 22,16 z m -6784,-78 c 0,-8 -12,-28 -26,-43 l -25,-28 23,42 c 25,47 28,50 28,29 z m 7650,-22 c 0,-17 -22,-14 -28,4 -2,7 3,12 12,12 9,0 16,-7 16,-16 z M 3225,5372 c 66,-47 183,-133 260,-191 77,-59 160,-119 185,-133 25,-14 63,-41 84,-60 l 39,-34 -24,-25 -24,-24 -80,80 c -44,45 -103,96 -132,114 -29,19 -50,37 -48,41 7,12 -69,77 -190,165 -60,43 -129,94 -152,112 -28,23 -42,30 -46,21 -5,-17 -47,18 -47,40 0,17 4,15 175,-106 z m -309,74 c 3,-7 -70,-200 -161,-429 -91,-228 -167,-426 -169,-440 -1,-14 -8,-32 -14,-40 -7,-8 -13,-27 -15,-43 -2,-16 -10,-40 -19,-54 -9,-14 -64,-151 -123,-305 -59,-154 -130,-329 -157,-390 -28,-60 -54,-128 -60,-150 -5,-22 -34,-102 -64,-178 -31,-77 -58,-155 -61,-174 -3,-19 -12,-37 -19,-40 -7,-2 -21,-28 -30,-56 -9,-29 -35,-95 -57,-147 -22,-52 -50,-126 -63,-165 -12,-38 -45,-119 -72,-180 -27,-60 -91,-216 -140,-345 -50,-129 -134,-341 -187,-470 -52,-129 -109,-279 -126,-333 -28,-90 -30,-99 -14,-110 13,-10 14,-18 6,-40 -12,-30 -50,-37 -70,-13 -16,19 39,182 154,461 48,116 116,285 151,378 35,92 68,175 73,185 5,9 21,51 37,92 15,41 45,113 67,160 22,47 50,117 62,155 13,39 46,126 74,193 28,68 51,130 51,138 0,7 8,21 19,31 10,10 21,33 24,51 4,18 29,88 56,155 27,67 57,149 66,182 10,33 28,80 40,105 23,45 120,288 235,585 34,88 67,166 73,173 6,7 12,27 14,44 2,17 8,37 15,45 6,8 13,26 14,40 4,35 164,433 174,433 5,0 8,8 7,18 -1,22 185,492 196,492 4,0 10,-6 13,-14 z m 1414,-86 c 0,-5 -9,-10 -20,-10 -11,0 -20,5 -20,10 0,6 9,10 20,10 11,0 20,-4 20,-10 z m 6457,-83 c 67,-39 121,-73 119,-74 -10,-10 -286,145 -286,160 0,10 17,1 167,-86 z m -5460,41 c -3,-7 -5,-2 -5,12 0,14 2,19 5,13 2,-7 2,-19 0,-25 z m 5227,12 c 3,-8 8,-35 11,-59 4,-25 16,-70 26,-100 13,-37 16,-57 9,-61 -7,-4 -8,-18 -4,-33 6,-27 24,-37 24,-14 1,6 12,-10 27,-38 14,-27 32,-58 40,-67 20,-23 9,-68 -16,-68 -24,0 -35,15 -51,65 -10,31 -113,299 -147,382 -4,9 7,12 36,10 27,-1 43,-7 45,-17 z m -9305,-67 c -55,-102 -538,-905 -551,-918 -21,-21 3,22 291,503 277,465 357,591 260,415 z m 6931,26 c 0,-20 -15,-26 -25,-9 -9,15 3,43 15,35 5,-3 10,-15 10,-26 z m -5890,-4 c 16,-19 14,-20 -28,-28 -33,-7 -35,-2 -9,31 13,16 22,15 37,-3 z m 3093,-1 c 3,-3 3,-12 0,-20 -4,-11 -9,-12 -19,-3 -8,6 -14,15 -14,20 0,10 24,12 33,3 z m 5580,-26 c 13,-10 227,-599 227,-624 0,-2 7,-4 15,-4 8,0 15,-4 15,-10 0,-13 -57,-13 -65,-1 -3,5 -41,112 -84,238 -43,125 -94,270 -113,321 -35,90 -33,108 5,80 z m -1933,-38 c 0,-13 -5,-18 -15,-14 -8,4 -15,12 -15,20 0,8 7,14 15,14 8,0 15,-9 15,-20 z m -6600,-70 c 26,0 200,-136 200,-156 0,-8 9,-19 20,-26 11,-7 20,-16 20,-20 0,-18 -27,-4 -104,54 -44,34 -110,84 -145,110 -43,32 -65,56 -67,72 -2,22 -2,22 26,-6 16,-15 38,-28 50,-28 z m -62,-22 c 43,-35 124,-98 180,-141 99,-75 119,-97 87,-97 -22,0 -65,30 -65,46 0,20 -172,154 -198,154 -14,0 -40,16 -63,40 -22,22 -44,40 -49,40 -6,0 -10,5 -10,10 0,25 46,5 118,-52 z m 1108,15 c -7,-7 -26,7 -26,19 0,6 6,6 15,-2 9,-7 13,-15 11,-17 z M 2342,5028 c 62,-42 268,-205 268,-213 0,-7 -269,-714 -276,-723 -1,-2 -19,9 -40,23 -38,26 -81,41 -90,33 -2,-3 23,-27 57,-54 95,-76 50,-64 -63,17 -95,68 -228,191 -228,210 0,5 36,-22 81,-59 95,-79 109,-86 83,-41 -11,19 -42,48 -69,66 -100,63 -104,18 39,380 69,176 126,323 126,326 0,15 32,77 39,77 5,0 38,-19 73,-42 z m 5823,12 c 3,-5 3,-15 0,-20 -7,-12 -45,5 -45,20 0,13 37,13 45,0 z m -2787,-23 c 2,-12 -3,-17 -17,-17 -23,0 -24,1 -15,25 8,19 28,15 32,-8 z M 3838,4883 c 3,-19 -1,-23 -22,-23 -28,0 -41,14 -32,36 9,24 50,13 54,-13 z m 272,-9 c 0,-8 -4,-14 -10,-14 -5,0 -10,9 -10,21 0,11 5,17 10,14 6,-3 10,-13 10,-21 z m -245,-43 c -3,-6 -11,-11 -17,-11 -6,0 -6,6 2,15 14,17 26,13 15,-4 z m 5101,-7 c -3,-9 -6,-20 -6,-25 0,-5 -7,-9 -15,-9 -18,0 -18,5 -5,31 13,23 35,26 26,3 z m -4638,-12 c 2,-7 -3,-12 -12,-12 -9,0 -16,7 -16,16 0,17 22,14 28,-4 z m 3812,-24 c 0,-11 -28,-10 -35,1 -3,6 4,9 15,8 11,-1 20,-5 20,-9 z m 790,-27 c 0,-5 -7,-11 -15,-15 -15,-5 -20,5 -8,17 9,10 23,9 23,-2 z m -3566,-7 c 23,-9 20,-24 -4,-24 -11,0 -20,7 -20,15 0,17 2,18 24,9 z m 2746,-123 c 0,-20 -17,-37 -27,-28 -7,8 7,47 18,47 5,0 9,-9 9,-19 z m 1000,-2 c 0,-5 -7,-9 -15,-9 -8,0 -15,7 -15,15 0,9 6,12 15,9 8,-4 15,-10 15,-15 z m -100,-12 c 0,-17 -195,-72 -455,-128 -104,-22 -223,-54 -263,-70 -41,-16 -88,-29 -106,-29 -35,0 -89,34 -139,88 -49,51 -15,43 53,-13 36,-30 73,-54 82,-54 26,-1 48,10 48,25 0,8 10,14 23,14 12,0 62,12 111,26 98,29 600,151 629,153 9,0 17,-5 17,-12 z m -746,-14 c 32,-106 28,-133 -21,-133 -18,0 -23,9 -32,50 -16,74 -14,88 12,93 12,2 25,5 29,6 4,0 9,-7 12,-16 z m 846,-37 c -14,-8 -59,-21 -100,-31 -41,-9 -179,-44 -307,-76 -263,-67 -510,-121 -497,-109 16,15 140,48 312,85 93,19 218,49 278,66 121,34 301,77 324,78 8,0 4,-6 -10,-13 z m -4780,-13 c 7,-6 -23,-23 -35,-20 -5,2 -12,12 -13,21 -3,15 1,17 20,11 12,-4 25,-9 28,-12 z m 3784,-23 c 55,-62 45,-76 -19,-28 -43,32 -53,44 -44,54 17,21 23,18 63,-26 z m -25,-134 c 19,-20 32,-38 30,-41 -8,-8 -200,146 -194,155 7,11 119,-67 164,-114 z m -6139,-10 c 0,-19 -27,-46 -46,-46 -18,0 -18,10 2,38 17,25 44,30 44,8 z m 2371,-101 c -1,-15 -24,-12 -29,3 -3,9 2,13 12,10 10,-1 17,-7 17,-13 z m -2331,-47 c 35,-24 73,-58 84,-77 24,-41 17,-38 -74,34 -114,90 -119,115 -10,43 z m 3370,-19 c 0,-5 -7,-9 -15,-9 -8,0 -15,7 -15,15 0,9 6,12 15,9 8,-4 15,-10 15,-15 z m -3386,-84 c 29,-18 105,-76 167,-126 63,-51 116,-94 118,-95 3,-3 -146,-395 -221,-580 l -33,-82 -43,30 c -58,40 -67,26 -14,-23 38,-36 52,-59 36,-59 -4,0 -49,33 -102,73 -111,83 -195,164 -217,207 -14,27 -7,23 56,-29 40,-34 76,-61 81,-61 19,0 -53,79 -97,107 -25,15 -45,33 -45,38 0,21 223,587 247,628 6,11 8,10 67,-28 z m 233,-61 c 32,-16 91,-79 81,-89 -7,-7 -62,27 -109,68 -47,41 -35,50 28,21 z m 2121,-41 c 2,-8 -5,-13 -17,-13 -21,0 -35,13 -24,24 10,10 36,3 41,-11 z m 8218,-320 c -6,-6 -76,132 -76,149 1,7 19,-22 41,-66 22,-43 38,-80 35,-83 z m -8225,61 c 12,-14 11,-16 -5,-13 -11,2 -21,10 -24,17 -5,17 13,15 29,-4 z m 983,-39 c 3,-9 0,-15 -9,-15 -8,0 -15,7 -15,15 0,8 4,15 9,15 5,0 11,-7 15,-15 z m -19,-55 c 3,-5 1,-10 -4,-10 -6,0 -11,5 -11,10 0,6 2,10 4,10 3,0 8,-4 11,-10 z M 1603,3568 c -4,-19 -12,-28 -25,-28 -20,0 -18,10 10,43 19,22 22,19 15,-15 z m 3847,-43 c 7,-9 11,-17 9,-19 -2,-2 -38,-11 -79,-21 -95,-23 -451,-121 -781,-215 l -255,-73 -54,57 c -72,77 -86,96 -66,96 8,0 37,-24 65,-52 27,-29 52,-50 56,-47 3,4 -18,35 -48,70 -48,57 -53,67 -45,92 6,17 17,27 29,27 23,0 26,-27 4,-32 -12,-2 -6,-15 24,-50 21,-26 42,-63 45,-82 4,-19 13,-39 20,-45 16,-14 46,-4 46,15 0,8 22,20 53,28 511,146 854,236 882,230 26,-4 37,-1 52,14 22,25 27,26 43,7 z m -1150,-40 c 0,-9 -9,-15 -21,-15 -18,0 -19,2 -9,15 7,8 16,15 21,15 5,0 9,-7 9,-15 z m 153,-67 c 28,-111 29,-121 15,-129 -7,-5 -16,-9 -20,-9 -24,0 -75,185 -54,194 34,14 43,5 59,-56 z m -2811,21 c 46,-30 119,-109 100,-109 -9,0 -162,127 -162,135 0,10 15,4 62,-26 z m 3829,17 c -7,-8 -42,-22 -79,-30 -37,-8 -164,-43 -282,-76 -395,-113 -677,-186 -686,-178 -4,5 442,133 721,207 172,46 328,88 334,90 2,0 -2,-5 -8,-13 z m -1281,-45 c 0,-12 -20,-25 -27,-18 -7,7 6,27 18,27 5,0 9,-4 9,-9 z m -2538,-93 c 29,-23 96,-79 149,-124 53,-44 106,-88 118,-96 21,-15 21,-16 -111,-345 l -133,-331 -63,56 c -42,37 -66,52 -73,45 -7,-7 12,-32 58,-76 37,-36 64,-69 61,-73 -19,-18 -318,291 -318,328 0,6 12,-5 28,-24 15,-18 46,-51 70,-72 35,-32 42,-35 42,-19 0,19 -101,125 -128,134 -10,3 7,57 61,199 115,301 171,440 179,440 3,0 30,-19 60,-42 z m 2594,-65 c 31,-35 53,-67 50,-71 -7,-7 -166,157 -166,171 0,15 60,-37 116,-100 z m -2308,-56 c 12,-11 22,-27 22,-35 0,-12 -5,-11 -27,3 -43,27 -83,67 -83,83 0,14 41,-10 88,-51 z m -638,-458 c 0,-5 -10,-9 -21,-9 -18,0 -19,2 -9,15 12,15 30,12 30,-6 z m 16,-92 c 35,-21 106,-105 102,-122 -2,-12 -25,6 -77,59 -67,70 -77,94 -25,63 z m 231,-223 c 60,-52 87,-87 81,-106 -3,-8 -35,16 -81,61 -66,64 -84,91 -60,91 3,0 30,-21 60,-46 z"
         inkscape:connector-curvature="0" />
      <path
         id="path5772"
         d="m 8659,9836 c 24,-26 101,-67 151,-82 l 25,-7 -20,23 c -23,25 -50,41 -127,71 l -53,21 z"
         inkscape:connector-curvature="0" />
      <path
         id="path5774"
         d="m 8460,9545 c 0,-8 4,-15 9,-15 5,0 14,7 21,15 10,13 9,15 -9,15 -12,0 -21,-6 -21,-15 z"
         inkscape:connector-curvature="0" />
      <path
         id="path5776"
         d="m 9620,9322 c 0,-16 58,-64 64,-53 4,6 4,16 1,21 -9,14 -65,42 -65,32 z"
         inkscape:connector-curvature="0" />
      <path
         id="path5778"
         d="m 9310,7851 c 0,-11 9,-25 19,-31 25,-13 28,-13 35,5 3,10 -5,20 -24,30 -28,15 -30,14 -30,-4 z"
         inkscape:connector-curvature="0" />
      <path
         id="path5780"
         d="m 9820,7565 c 14,-8 30,-14 35,-14 6,0 -1,6 -15,14 -14,8 -29,14 -35,14 -5,0 1,-6 15,-14 z"
         inkscape:connector-curvature="0" />
      <path
         id="path5782"
         d="m 5080,8890 c 0,-5 5,-10 10,-10 6,0 29,-13 52,-30 40,-29 86,-41 73,-19 -26,41 -135,89 -135,59 z"
         inkscape:connector-curvature="0" />
      <path
         id="path5784"
         d="m 4380,8686 c 0,-11 9,-16 26,-16 31,0 28,23 -4,28 -15,2 -22,-2 -22,-12 z"
         inkscape:connector-curvature="0" />
      <path
         id="path5786"
         d="m 6472,8239 c 2,-7 10,-15 17,-17 8,-3 12,1 9,9 -2,7 -10,15 -17,17 -8,3 -12,-1 -9,-9 z"
         inkscape:connector-curvature="0" />
      <path
         id="path5788"
         d="m 6470,7670 c 0,-5 4,-10 9,-10 6,0 13,5 16,10 3,6 -1,10 -9,10 -9,0 -16,-4 -16,-10 z"
         inkscape:connector-curvature="0" />
      <path
         id="path5790"
         d="m 2544,7109 c -3,-6 -1,-16 5,-22 8,-8 11,-5 11,11 0,24 -5,28 -16,11 z"
         inkscape:connector-curvature="0" />
      <path
         id="path5792"
         d="m 2610,5891 c 0,-11 25,-35 69,-64 56,-37 70,-43 75,-30 6,16 -14,35 -88,85 -48,33 -56,34 -56,9 z"
         inkscape:connector-curvature="0" />
      <path
         id="path5794"
         d="m 2857,5696 c 57,-50 133,-84 133,-58 0,15 -84,72 -100,67 -9,-3 -25,2 -36,10 -36,27 -34,15 3,-19 z"
         inkscape:connector-curvature="0" />
      <path
         id="path5796"
         d="m 10240,6556 c 0,-6 98,-66 108,-66 3,0 -17,16 -45,35 -50,34 -63,40 -63,31 z"
         inkscape:connector-curvature="0" />
      <path
         id="path5798"
         d="m 4370,5975 c 33,-19 50,-18 26,0 -11,8 -27,15 -35,15 -10,-1 -7,-6 9,-15 z"
         inkscape:connector-curvature="0" />
      <path
         id="path5800"
         d="m 9426,9726 c 3,-9 11,-16 16,-16 13,0 5,23 -10,28 -7,2 -10,-2 -6,-12 z"
         inkscape:connector-curvature="0" />
      <path
         id="path5802"
         d="m 10816,5887 c 3,-10 9,-15 12,-12 3,3 0,11 -7,18 -10,9 -11,8 -5,-6 z"
         inkscape:connector-curvature="0" />
      <path
         id="path5804"
         d="m 4150,4934 c 0,-14 4,-23 9,-20 5,3 7,15 4,26 -7,28 -13,25 -13,-6 z"
         inkscape:connector-curvature="0" />
      <path
         id="path5806"
         d="m 9080,4757 c 0,-14 5,-29 10,-32 7,-4 8,3 4,22 -9,38 -14,42 -14,10 z"
         inkscape:connector-curvature="0" />
      <path
         id="path5808"
         d="m 9140,4690 c 0,-11 7,-20 15,-20 8,0 15,6 15,14 0,8 -7,16 -15,20 -10,4 -15,-1 -15,-14 z"
         inkscape:connector-curvature="0" />
      <path
         id="path5810"
         d="m 2587,3982 c -145,-369 -180,-465 -167,-457 5,3 10,11 10,16 0,6 49,135 109,287 127,321 173,443 168,448 -2,2 -56,-130 -120,-294 z"
         inkscape:connector-curvature="0" />
      <path
         id="path5812"
         d="m 12411,4245 c 0,-5 6,-21 14,-35 8,-14 14,-20 14,-15 0,6 -6,21 -14,35 -8,14 -14,21 -14,15 z"
         inkscape:connector-curvature="0" />
      <path
         id="path5814"
         d="m 12590,3881 c 0,-14 28,-71 35,-71 5,0 -22,70 -30,79 -3,2 -5,-1 -5,-8 z"
         inkscape:connector-curvature="0" />
    </g>
  </g>
</svg>
